<svg width="1920" height="1076" viewBox="0 0 1920 1076" fill="none" xmlns="http://www.w3.org/2000/svg">
<path fill-rule="evenodd" clip-rule="evenodd" d="M2079 808.555L2004.13 761.908C1929.26 718.37 1779.53 628.185 1629.79 696.601C1480.05 761.908 1328.45 988.925 1178.71 920.509C1028.97 852.092 879.236 682.5 729.5 682.5C579.764 682.5 430.027 852.092 280.291 942.277C128.682 1032.46 -21.054 852.092 -170.791 830.324C-320.527 808.555 -470.264 942.277 -545.132 1010.69L-620 1076V0H-545.132C-470.264 0 -320.527 0 -170.791 0C-21.054 0 128.682 0 280.291 0C430.027 0 579.764 0 729.5 0C879.236 0 1028.97 0 1178.71 0C1328.45 0 1480.05 0 1629.79 0C1779.53 0 1929.26 0 2004.13 0H2079V808.555Z" fill="#D3DDCE"/>
</svg>
