<svg width="2702" height="1077" viewBox="0 0 2702 1077" fill="none" xmlns="http://www.w3.org/2000/svg">
<path fill-rule="evenodd" clip-rule="evenodd" d="M2699.57 262.444L2624.8 309.253C2550.03 352.951 2400.48 443.457 2250.6 375.363C2100.72 310.379 1948.63 83.6875 1799.04 152.425C1649.45 221.163 1500.08 391.077 1350.34 391.398C1200.61 391.72 1050.51 222.45 900.576 132.587C748.774 42.7276 599.426 223.419 449.736 245.509C300.047 267.6 150.023 134.199 75.0083 65.944L4.84586e-05 0.798635L2.31177 1076.8L77.1798 1076.64C152.048 1076.47 301.784 1076.15 451.52 1075.83C601.256 1075.51 750.992 1075.19 902.6 1074.86C1052.34 1074.54 1202.07 1074.22 1351.81 1073.9C1501.54 1073.58 1651.28 1073.25 1801.02 1072.93C1950.75 1072.61 2102.36 1072.28 2252.1 1071.96C2401.83 1071.64 2551.57 1071.32 2626.44 1071.16L2701.31 1071L2699.57 262.444Z" fill="#D3DDCE"/>
</svg>
