<svg width="132" height="132" viewBox="0 0 132 132" fill="none" xmlns="http://www.w3.org/2000/svg">
<g clip-path="url(#clip0_35_25)">
<path d="M40.0606 25.7914C17.9271 40.0411 11.5416 69.5099 25.7914 91.6434C37.2041 109.37 58.3109 116.96 77.6524 112.016C79.8811 111.077 79.8585 109.392 79.1814 108.34C78.5689 107.389 76.4878 104.266 74.3277 100.911C65.4554 109.244 60.0788 106.614 57.8269 104.876C56.6347 104.015 52.3927 101.717 50.0776 101.861C48.1919 102.013 44.996 101.45 48.3189 99.2394C51.4414 97.1583 55.5969 98.662 57.1218 99.3802C64.6282 103.118 69.2908 97.7081 70.9172 95.1735C69.5913 92.3439 69.5145 89.9142 70.0215 88.1712C60.4632 92.9082 48.9246 95.4495 39.0594 80.1263C36.2546 75.7697 35.4858 71.1649 36.2342 66.7164C35.1888 65.9728 31.1431 62.7693 29.8001 55.8425C29.8001 55.8425 32.4782 52.6308 43.4604 52.856C46.0849 49.8914 49.1999 47.2484 52.6051 45.0562C56.0102 42.8639 59.7055 41.1223 63.4907 39.9604C67.7994 29.8199 71.8637 28.7615 71.8637 28.7615C77.6134 32.8513 78.8549 37.8602 79.0991 39.1197C83.4583 40.2797 87.2997 42.8357 90.1367 47.2423C100.034 62.6156 92.8622 72.0495 84.5935 78.7896C86.8517 79.1065 89.6511 80.7042 92.069 84.4599C95.5186 89.818 98.2411 94.1567 99.1116 95.5088C99.7886 96.5604 101.346 97.3287 103.091 95.6385C109.316 87.8341 112.936 78.2737 113.443 68.3035C113.949 58.3333 111.315 48.4554 105.913 40.0606C91.6628 17.9271 62.1941 11.5417 40.0606 25.7914Z" fill="#596057" fill-opacity="0.38"/>
</g>
<defs>
<clipPath id="clip0_35_25">
<rect width="95.29" height="95.29" fill="white" transform="translate(0 51.5828) rotate(-32.7738)"/>
</clipPath>
</defs>
</svg>
