<svg width="2702" height="1427" viewBox="0 0 2702 1427" fill="none" xmlns="http://www.w3.org/2000/svg">
<path fill-rule="evenodd" clip-rule="evenodd" d="M2699.57 262.444L2624.8 309.253C2550.03 352.951 2400.48 443.457 2250.6 375.363C2100.72 310.379 1948.63 83.6875 1799.04 152.425C1649.45 221.163 1500.08 391.077 1350.34 391.398C1200.61 391.72 1050.51 222.45 900.576 132.587C748.774 42.7276 599.426 223.419 449.736 245.509C300.047 267.6 150.023 134.199 75.0083 65.944L4.84586e-05 0.798635L2.31177 1076.8L77.1798 1076.64C152.048 1076.47 301.784 1076.15 451.52 1075.83C601.256 1075.51 750.992 1075.19 902.6 1074.86C1052.34 1074.54 1202.07 1074.22 1351.81 1073.9C1501.54 1073.58 1651.28 1073.25 1801.02 1072.93C1950.75 1072.61 2102.36 1072.28 2252.1 1071.96C2401.83 1071.64 2551.57 1071.32 2626.44 1071.16L2701.31 1071L2699.57 262.444Z" fill="#D3DDCE"/>
<g clip-path="url(#clip0_2_105)">
<path d="M1766.54 212.197C1770.19 201.406 1773.99 190.666 1777.94 179.98L1779.03 177.15C1780.28 173.883 1781.55 170.669 1783.08 166.787C1789.2 151.326 1795.36 141.455 1802.23 133.298C1809.33 124.836 1817.22 118.366 1828.25 112.97C1838.2 107.992 1849.12 105.241 1860.24 104.909C1870.9 104.486 1882.49 105.686 1898.46 110.335C1902.44 111.505 1905.77 112.481 1909.12 113.497L1912.02 114.391C1922.88 117.82 1933.69 121.4 1944.45 125.129L1955.47 128.892L1974.82 135.525C1985.61 139.183 1996.35 142.991 2007.03 146.948L2009.87 148.018C2013.13 149.271 2016.35 150.537 2020.23 152.067C2035.69 158.192 2045.55 164.379 2053.71 171.237C2062.31 178.316 2069.25 187.19 2074.05 197.238C2079.02 207.196 2081.77 218.118 2082.1 229.246C2082.52 239.904 2081.33 251.477 2076.68 267.444C2075.51 271.448 2074.54 274.763 2073.52 278.111L2072.63 281.007C2069.19 291.871 2065.61 302.687 2061.88 313.452L2058.12 324.475L2051.49 343.807C2047.83 354.597 2044.02 365.335 2040.07 376.019L2039 378.854C2037.67 382.317 2036.32 385.771 2034.95 389.218C2028.82 404.678 2022.64 414.54 2015.77 422.717C2008.69 431.303 1999.82 438.237 1989.78 443.034C1979.82 448.021 1968.9 450.775 1957.76 451.105C1947.11 451.528 1935.53 450.333 1919.57 445.684C1916.01 444.647 1912.45 443.593 1908.9 442.522L1906.01 441.614C1895.14 438.192 1884.32 434.621 1873.55 430.9L1843.19 420.49C1832.4 416.838 1821.67 413.036 1810.99 409.086L1808.16 408.001C1804.89 406.748 1801.66 405.477 1797.79 403.953C1782.32 397.822 1772.46 391.67 1764.29 384.792C1755.71 377.7 1748.78 368.813 1744 358.757C1739.01 348.81 1736.24 337.893 1735.91 326.768C1735.49 316.095 1736.68 304.537 1741.33 288.555L1744.49 277.888L1745.4 274.998C1748.82 264.135 1752.39 253.321 1756.11 242.557L1766.54 212.197ZM1835.17 252.696C1831.68 262.433 1830.16 272.767 1830.7 283.097C1831.23 293.427 1833.81 303.548 1838.3 312.871C1842.78 322.195 1849.07 330.534 1856.8 337.406C1864.53 344.277 1873.55 349.543 1883.34 352.898C1893.12 356.252 1903.48 357.629 1913.8 356.947C1924.12 356.265 1934.2 353.539 1943.46 348.926C1952.72 344.314 1960.97 337.907 1967.73 330.078C1974.49 322.249 1979.63 313.155 1982.85 303.323C1989.56 283.739 1988.22 262.289 1979.12 243.693C1970.02 225.097 1953.9 210.878 1934.32 204.163C1914.74 197.449 1893.29 198.79 1874.69 207.89C1856.09 216.991 1841.89 233.111 1835.17 252.696ZM1864.71 262.822C1866.62 256.9 1869.69 251.417 1873.74 246.694C1877.8 241.972 1882.75 238.104 1888.31 235.316C1893.88 232.529 1899.94 230.879 1906.15 230.461C1912.36 230.044 1918.59 230.867 1924.47 232.885C1930.36 234.902 1935.79 238.072 1940.43 242.209C1945.08 246.347 1948.86 251.369 1951.54 256.983C1954.23 262.596 1955.77 268.689 1956.07 274.904C1956.38 281.119 1955.44 287.333 1953.32 293.182C1949.29 304.933 1940.76 314.602 1929.6 320.062C1918.44 325.523 1905.57 326.327 1893.82 322.299C1882.07 318.27 1872.4 309.738 1866.94 298.581C1861.48 287.423 1860.67 274.553 1864.7 262.803L1864.71 262.822ZM1839.6 167.565C1838.16 172.395 1838.64 177.596 1840.95 182.078C1843.25 186.561 1847.21 189.977 1851.97 191.612C1856.74 193.246 1861.96 192.973 1866.53 190.848C1871.1 188.723 1874.67 184.912 1876.5 180.213C1878.17 175.317 1877.84 169.954 1875.56 165.305C1873.29 160.656 1869.26 157.102 1864.36 155.423C1859.47 153.744 1854.11 154.08 1849.46 156.355C1844.81 158.63 1841.25 162.659 1839.57 167.555L1839.6 167.565Z" fill="#1D1A1A"/>
</g>
<path d="M1676.17 623.783C1684.95 623.349 1693.55 626.423 1700.07 632.329C1706.59 638.234 1710.5 646.488 1710.93 655.274L1722.39 887.166C1722.82 895.952 1719.75 904.551 1713.84 911.07C1707.94 917.59 1699.68 921.497 1690.9 921.931L1459.01 933.389C1450.22 933.823 1441.62 930.749 1435.1 924.844C1428.58 918.938 1424.68 910.684 1424.24 901.898L1412.78 670.006C1412.35 661.22 1415.42 652.621 1421.33 646.102C1427.23 639.582 1435.49 635.676 1444.27 635.242L1676.17 623.783ZM1680.57 880.931L1676.23 793.143C1675.53 778.822 1669.16 765.368 1658.53 755.742C1647.9 746.116 1633.89 741.105 1619.57 741.813C1605.49 742.509 1589.52 751.932 1582.2 765.245L1581.29 746.859L1535.08 749.142L1541.93 887.781L1588.14 885.497L1584.11 803.838C1583.48 791.084 1593.23 780.142 1605.99 779.511C1612.14 779.207 1618.16 781.359 1622.72 785.493C1627.28 789.627 1630.02 795.405 1630.32 801.555L1634.36 883.214L1680.57 880.931ZM1479.96 725.797C1487.34 725.433 1494.28 722.151 1499.24 716.675C1504.2 711.198 1506.78 703.975 1506.42 696.595C1505.66 681.191 1492.61 669.216 1477.21 669.977C1469.78 670.344 1462.81 673.645 1457.82 679.154C1452.83 684.663 1450.23 691.929 1450.6 699.353C1451.36 714.758 1464.56 726.558 1479.96 725.797ZM1511.12 889.303L1504.27 750.665L1458.39 752.932L1465.24 891.57L1511.12 889.303Z" fill="#1D1A1A"/>
<g clip-path="url(#clip1_2_105)">
<path d="M2434.47 353.831C2374.54 392.412 2357.25 472.2 2395.83 532.127C2426.73 580.122 2483.88 600.672 2536.25 587.286C2542.28 584.744 2542.22 580.18 2540.39 577.333C2538.73 574.757 2533.09 566.303 2527.24 557.219C2503.22 579.78 2488.66 572.659 2482.57 567.955C2479.34 565.622 2467.85 559.4 2461.59 559.792C2456.48 560.202 2447.83 558.677 2456.82 552.693C2465.28 547.058 2476.53 551.13 2480.66 553.074C2500.98 563.195 2513.61 548.547 2518.01 541.685C2514.42 534.023 2514.21 527.445 2515.58 522.726C2489.71 535.551 2458.46 542.432 2431.75 500.944C2424.16 489.148 2422.08 476.681 2424.11 464.636C2421.27 462.623 2410.32 453.949 2406.68 435.195C2406.68 435.195 2413.94 426.499 2443.67 427.109C2450.78 419.082 2459.21 411.926 2468.43 405.991C2477.65 400.055 2487.65 395.34 2497.9 392.194C2509.57 364.738 2520.57 361.873 2520.57 361.873C2536.14 372.946 2539.5 386.508 2540.16 389.917C2551.97 393.058 2562.37 399.979 2570.05 411.91C2596.84 453.533 2577.43 479.076 2555.04 497.325C2561.15 498.183 2568.73 502.509 2575.28 512.677C2584.62 527.184 2591.99 538.932 2594.35 542.592C2596.18 545.44 2600.4 547.52 2605.12 542.944C2621.98 521.813 2631.78 495.928 2633.15 468.933C2634.52 441.939 2627.39 415.194 2612.76 392.465C2574.18 332.538 2494.39 315.249 2434.47 353.831Z" fill="#1D1A1A"/>
</g>
<path d="M2260.23 879.536L2261.63 880.161C2274.51 885.98 2339.64 915.699 2355.14 928.323C2359.82 932.153 2363.41 937.144 2365.55 942.797C2367.7 948.45 2368.32 954.567 2367.36 960.537C2366.28 967.208 2363.86 975.598 2360.97 984.078L2360.4 985.78L2358.92 990.013L2358.31 991.701C2352.91 1006.5 2347.03 1019.98 2345.73 1022.92L2345.2 1024.1C2343.83 1027.14 2337.27 1041.41 2329.45 1055.84L2328.59 1057.43L2327.72 1059C2322.92 1067.63 2317.77 1076.02 2313.09 1081.8C2309.28 1086.49 2304.3 1090.11 2298.66 1092.27C2293.01 1094.44 2286.89 1095.08 2280.92 1094.14C2260.53 1090.89 2191.2 1060.27 2181.61 1056L2179.38 1055C2174.53 1052.83 2154.52 1043.76 2133.82 1033.63L2131.2 1032.34L2129.86 1031.67L2127.23 1030.36L2124.6 1029.05C2107.53 1020.48 2091.5 1011.82 2084.78 1006.33C2080.1 1002.51 2076.51 997.518 2074.36 991.867C2072.21 986.216 2071.59 980.1 2072.55 974.131C2073.74 966.81 2076.57 957.363 2079.8 948.038L2080.41 946.334L2081.02 944.647C2085 933.669 2089.34 922.824 2094.03 912.128L2094.89 910.199C2096.43 906.84 2101.78 895.239 2108.38 882.753L2109.22 881.186L2109.63 880.392L2110.48 878.816L2112.65 874.892L2113.54 873.33C2117.94 865.525 2122.59 858.116 2126.84 852.879C2130.65 848.183 2135.63 844.57 2141.27 842.404C2146.92 840.238 2153.04 839.594 2159.01 840.538C2167.56 841.918 2184.71 848.085 2202.47 855.096L2205.19 856.18L2207.93 857.293L2209.3 857.85L2212.03 858.941C2227.18 865.144 2242.24 871.563 2257.2 878.196L2260.23 879.552L2260.23 879.536ZM2211.79 918.304L2177.96 993.892L2260.08 985.305L2211.79 918.304Z" fill="#1D1A1A"/>
<defs>
<clipPath id="clip0_2_105">
<rect width="374.702" height="374.702" fill="white" transform="translate(1658 432.45) rotate(-71.0765)"/>
</clipPath>
<clipPath id="clip1_2_105">
<rect width="258" height="258" fill="white" transform="translate(2326 423.662) rotate(-32.7738)"/>
</clipPath>
</defs>
</svg>
