<svg width="2702" height="1427" viewBox="0 0 2702 1427" fill="none" xmlns="http://www.w3.org/2000/svg">
<path fill-rule="evenodd" clip-rule="evenodd" d="M2699.57 262.444L2624.8 309.253C2550.03 352.951 2400.48 443.457 2250.6 375.363C2100.72 310.379 1948.63 83.6875 1799.04 152.425C1649.45 221.163 1500.08 391.077 1350.34 391.398C1200.61 391.72 1050.51 222.45 900.576 132.587C748.774 42.7276 599.426 223.419 449.736 245.509C300.047 267.6 150.023 134.199 75.0083 65.944L4.84586e-05 0.798635L2.31177 1076.8L77.1798 1076.64C152.048 1076.47 301.784 1076.15 451.52 1075.83C601.256 1075.51 750.992 1075.19 902.6 1074.86C1052.34 1074.54 1202.07 1074.22 1351.81 1073.9C1501.54 1073.58 1651.28 1073.25 1801.02 1072.93C1950.75 1072.61 2102.36 1072.28 2252.1 1071.96C2401.83 1071.64 2551.57 1071.32 2626.44 1071.16L2701.31 1071L2699.57 262.444Z" fill="#D3DDCE"/>
<g clip-path="url(#clip0_2_105)">
<path d="M1766.54 215.197C1770.19 204.406 1773.99 193.666 1777.94 182.98L1779.03 180.15C1780.28 176.883 1781.55 173.669 1783.08 169.787C1789.2 154.326 1795.36 144.455 1802.23 136.298C1809.33 127.836 1817.22 121.366 1828.25 115.97C1838.2 110.992 1849.12 108.241 1860.24 107.909C1870.9 107.486 1882.49 108.686 1898.46 113.335C1902.44 114.505 1905.77 115.481 1909.12 116.497L1912.02 117.391C1922.88 120.82 1933.69 124.4 1944.45 128.129L1955.47 131.892L1974.82 138.525C1985.61 142.183 1996.35 145.991 2007.03 149.948L2009.87 151.018C2013.13 152.271 2016.35 153.537 2020.23 155.067C2035.69 161.192 2045.55 167.379 2053.71 174.237C2062.31 181.316 2069.25 190.19 2074.05 200.238C2079.02 210.196 2081.77 221.118 2082.1 232.246C2082.52 242.904 2081.33 254.477 2076.68 270.444C2075.51 274.448 2074.54 277.763 2073.52 281.111L2072.63 284.007C2069.19 294.871 2065.61 305.687 2061.88 316.452L2058.12 327.475L2051.49 346.807C2047.83 357.597 2044.02 368.335 2040.07 379.019L2039 381.854C2037.67 385.317 2036.32 388.771 2034.95 392.218C2028.82 407.678 2022.64 417.54 2015.77 425.717C2008.69 434.303 1999.82 441.237 1989.78 446.034C1979.82 451.021 1968.9 453.775 1957.76 454.105C1947.11 454.528 1935.53 453.333 1919.57 448.684C1916.01 447.647 1912.45 446.593 1908.9 445.522L1906.01 444.614C1895.14 441.192 1884.32 437.621 1873.55 433.9L1843.19 423.49C1832.4 419.838 1821.67 416.036 1810.99 412.086L1808.16 411.001C1804.89 409.748 1801.66 408.477 1797.79 406.953C1782.32 400.822 1772.46 394.67 1764.29 387.792C1755.71 380.7 1748.78 371.813 1744 361.757C1739.01 351.81 1736.24 340.893 1735.91 329.768C1735.49 319.095 1736.68 307.537 1741.33 291.555L1744.49 280.888L1745.4 277.998C1748.82 267.135 1752.39 256.321 1756.11 245.557L1766.54 215.197ZM1835.17 255.696C1831.68 265.433 1830.16 275.767 1830.7 286.097C1831.23 296.427 1833.81 306.548 1838.3 315.871C1842.78 325.195 1849.07 333.534 1856.8 340.406C1864.53 347.277 1873.55 352.543 1883.34 355.898C1893.12 359.252 1903.48 360.629 1913.8 359.947C1924.12 359.265 1934.2 356.539 1943.46 351.926C1952.72 347.314 1960.97 340.907 1967.73 333.078C1974.49 325.249 1979.63 316.155 1982.85 306.323C1989.56 286.739 1988.22 265.289 1979.12 246.693C1970.02 228.097 1953.9 213.878 1934.32 207.163C1914.74 200.449 1893.29 201.79 1874.69 210.89C1856.09 219.991 1841.89 236.111 1835.17 255.696ZM1864.71 265.822C1866.62 259.9 1869.69 254.417 1873.74 249.694C1877.8 244.972 1882.75 241.104 1888.31 238.316C1893.88 235.529 1899.94 233.879 1906.15 233.461C1912.36 233.044 1918.59 233.867 1924.47 235.885C1930.36 237.902 1935.79 241.072 1940.43 245.209C1945.08 249.347 1948.86 254.369 1951.54 259.983C1954.23 265.596 1955.77 271.689 1956.07 277.904C1956.38 284.119 1955.44 290.333 1953.32 296.182C1949.29 307.933 1940.76 317.602 1929.6 323.062C1918.44 328.523 1905.57 329.327 1893.82 325.299C1882.07 321.27 1872.4 312.738 1866.94 301.581C1861.48 290.423 1860.67 277.553 1864.7 265.803L1864.71 265.822ZM1839.6 170.565C1838.16 175.395 1838.64 180.596 1840.95 185.078C1843.25 189.561 1847.21 192.977 1851.97 194.612C1856.74 196.246 1861.96 195.973 1866.53 193.848C1871.1 191.723 1874.67 187.912 1876.5 183.213C1878.17 178.317 1877.84 172.954 1875.56 168.305C1873.29 163.656 1869.26 160.102 1864.36 158.423C1859.47 156.744 1854.11 157.08 1849.46 159.355C1844.81 161.63 1841.25 165.659 1839.57 170.555L1839.6 170.565Z" fill="#1D1A1A"/>
</g>
<path d="M2089.04 489.437C2090.16 486.144 2091.32 482.866 2092.53 479.606L2092.86 478.742C2093.24 477.745 2093.63 476.765 2094.09 475.58C2095.96 470.862 2097.84 467.85 2099.94 465.361C2102.1 462.779 2104.51 460.805 2107.88 459.158C2110.91 457.639 2114.24 456.8 2117.64 456.699C2120.89 456.57 2124.43 456.936 2129.3 458.354C2130.52 458.711 2131.53 459.009 2132.55 459.319L2133.44 459.592C2136.75 460.638 2140.05 461.731 2143.33 462.869L2146.7 464.017L2152.6 466.041C2155.89 467.157 2159.17 468.319 2162.43 469.526L2163.29 469.853C2164.29 470.235 2165.27 470.622 2166.46 471.088C2171.17 472.957 2174.18 474.845 2176.67 476.938C2179.3 479.098 2181.41 481.806 2182.88 484.872C2184.4 487.911 2185.24 491.243 2185.34 494.639C2185.47 497.891 2185.1 501.422 2183.68 506.294C2183.32 507.516 2183.03 508.528 2182.72 509.549L2182.44 510.433C2181.4 513.748 2180.3 517.049 2179.17 520.333L2178.02 523.697L2176 529.596C2174.88 532.888 2173.72 536.165 2172.51 539.425L2172.18 540.29C2171.78 541.347 2171.37 542.401 2170.95 543.452C2169.08 548.17 2167.19 551.179 2165.1 553.674C2162.94 556.294 2160.23 558.41 2157.16 559.874C2154.13 561.395 2150.79 562.236 2147.4 562.337C2144.14 562.466 2140.61 562.101 2135.74 560.683C2134.65 560.366 2133.57 560.045 2132.49 559.718L2131.6 559.441C2128.29 558.397 2124.99 557.307 2121.7 556.171L2112.43 552.995C2109.14 551.88 2105.87 550.72 2102.61 549.515L2101.74 549.184C2100.75 548.802 2099.76 548.414 2098.58 547.949C2093.86 546.078 2090.85 544.201 2088.36 542.102C2085.74 539.938 2083.63 537.226 2082.17 534.158C2080.64 531.123 2079.8 527.791 2079.7 524.397C2079.57 521.14 2079.93 517.613 2081.35 512.736L2082.32 509.481L2082.6 508.599C2083.64 505.285 2084.73 501.985 2085.86 498.7L2089.04 489.437ZM2109.99 501.794C2108.92 504.765 2108.46 507.919 2108.62 511.071C2108.79 514.223 2109.57 517.311 2110.94 520.156C2112.31 523.001 2114.23 525.546 2116.59 527.642C2118.95 529.739 2121.7 531.346 2124.69 532.37C2127.67 533.393 2130.83 533.813 2133.98 533.605C2137.13 533.397 2140.21 532.565 2143.03 531.158C2145.86 529.75 2148.37 527.795 2150.44 525.407C2152.5 523.018 2154.07 520.243 2155.05 517.243C2157.1 511.267 2156.69 504.721 2153.91 499.047C2151.14 493.373 2146.22 489.034 2140.24 486.985C2134.27 484.936 2127.72 485.345 2122.05 488.122C2116.37 490.899 2112.04 495.818 2109.99 501.794ZM2119 504.884C2119.58 503.077 2120.52 501.404 2121.76 499.963C2122.99 498.522 2124.51 497.342 2126.2 496.491C2127.9 495.641 2129.75 495.137 2131.65 495.01C2133.54 494.882 2135.44 495.133 2137.24 495.749C2139.03 496.364 2140.69 497.332 2142.11 498.594C2143.53 499.857 2144.68 501.389 2145.5 503.102C2146.32 504.815 2146.79 506.674 2146.88 508.571C2146.97 510.467 2146.69 512.363 2146.04 514.148C2144.81 517.734 2142.21 520.684 2138.8 522.35C2135.4 524.017 2131.47 524.262 2127.88 523.033C2124.3 521.803 2121.35 519.2 2119.68 515.796C2118.02 512.391 2117.77 508.464 2119 504.878L2119 504.884ZM2111.34 475.817C2110.9 477.291 2111.05 478.878 2111.75 480.246C2112.45 481.614 2113.66 482.656 2115.12 483.155C2116.57 483.654 2118.16 483.57 2119.56 482.922C2120.95 482.274 2122.04 481.111 2122.6 479.677C2123.11 478.183 2123.01 476.547 2122.31 475.128C2121.62 473.709 2120.39 472.625 2118.9 472.112C2117.4 471.6 2115.77 471.703 2114.35 472.397C2112.93 473.091 2111.84 474.32 2111.33 475.814L2111.34 475.817Z" fill="#596057" fill-opacity="0.38"/>
<path d="M1676.17 623.783C1684.95 623.349 1693.55 626.423 1700.07 632.329C1706.59 638.234 1710.5 646.488 1710.93 655.274L1722.39 887.166C1722.82 895.952 1719.75 904.551 1713.84 911.07C1707.94 917.59 1699.68 921.497 1690.9 921.931L1459.01 933.389C1450.22 933.823 1441.62 930.749 1435.1 924.844C1428.58 918.938 1424.68 910.684 1424.24 901.898L1412.78 670.006C1412.35 661.22 1415.42 652.621 1421.33 646.102C1427.23 639.582 1435.49 635.676 1444.27 635.242L1676.17 623.783ZM1680.57 880.931L1676.23 793.143C1675.53 778.822 1669.16 765.368 1658.53 755.742C1647.9 746.116 1633.89 741.105 1619.57 741.813C1605.49 742.509 1589.52 751.932 1582.2 765.245L1581.29 746.859L1535.08 749.142L1541.93 887.781L1588.14 885.497L1584.11 803.838C1583.48 791.084 1593.23 780.142 1605.99 779.511C1612.14 779.207 1618.16 781.359 1622.72 785.493C1627.28 789.627 1630.02 795.405 1630.32 801.555L1634.36 883.214L1680.57 880.931ZM1479.96 725.797C1487.34 725.433 1494.28 722.151 1499.24 716.675C1504.2 711.198 1506.78 703.975 1506.42 696.595C1505.66 681.191 1492.61 669.216 1477.21 669.977C1469.78 670.344 1462.81 673.645 1457.82 679.154C1452.83 684.663 1450.23 691.929 1450.6 699.353C1451.36 714.758 1464.56 726.558 1479.96 725.797ZM1511.12 889.303L1504.27 750.665L1458.39 752.932L1465.24 891.57L1511.12 889.303Z" fill="#1D1A1A"/>
<g clip-path="url(#clip1_2_105)">
<path d="M2434.47 328.831C2374.54 367.412 2357.25 447.2 2395.83 507.127C2426.73 555.122 2483.88 575.672 2536.25 562.286C2542.28 559.744 2542.22 555.18 2540.39 552.333C2538.73 549.757 2533.09 541.303 2527.24 532.219C2503.22 554.78 2488.66 547.659 2482.57 542.955C2479.34 540.622 2467.85 534.4 2461.59 534.792C2456.48 535.202 2447.83 533.677 2456.82 527.693C2465.28 522.058 2476.53 526.13 2480.66 528.074C2500.98 538.195 2513.61 523.547 2518.01 516.685C2514.42 509.023 2514.21 502.445 2515.58 497.726C2489.71 510.551 2458.46 517.432 2431.75 475.944C2424.16 464.148 2422.08 451.681 2424.11 439.636C2421.27 437.623 2410.32 428.949 2406.68 410.195C2406.68 410.195 2413.94 401.499 2443.67 402.109C2450.78 394.082 2459.21 386.926 2468.43 380.991C2477.65 375.055 2487.65 370.34 2497.9 367.194C2509.57 339.738 2520.57 336.873 2520.57 336.873C2536.14 347.946 2539.5 361.508 2540.16 364.917C2551.97 368.058 2562.37 374.979 2570.05 386.91C2596.84 428.533 2577.43 454.076 2555.04 472.325C2561.15 473.183 2568.73 477.509 2575.28 487.677C2584.62 502.184 2591.99 513.932 2594.35 517.592C2596.18 520.44 2600.4 522.52 2605.12 517.944C2621.98 496.813 2631.78 470.928 2633.15 443.933C2634.52 416.939 2627.39 390.194 2612.76 367.465C2574.18 307.538 2494.39 290.249 2434.47 328.831Z" fill="#1D1A1A"/>
</g>
<g clip-path="url(#clip2_2_105)">
<path d="M1764.06 529.791C1741.93 544.041 1735.54 573.51 1749.79 595.643C1761.2 613.37 1782.31 620.96 1801.65 616.016C1803.88 615.077 1803.86 613.392 1803.18 612.34C1802.57 611.389 1800.49 608.266 1798.33 604.911C1789.46 613.244 1784.08 610.614 1781.83 608.876C1780.63 608.015 1776.39 605.717 1774.08 605.861C1772.19 606.013 1769 605.45 1772.32 603.239C1775.44 601.158 1779.6 602.662 1781.12 603.38C1788.63 607.118 1793.29 601.708 1794.92 599.173C1793.59 596.344 1793.51 593.914 1794.02 592.171C1784.46 596.908 1772.92 599.45 1763.06 584.126C1760.25 579.77 1759.49 575.165 1760.23 570.716C1759.19 569.973 1755.14 566.769 1753.8 559.842C1753.8 559.842 1756.48 556.631 1767.46 556.856C1770.08 553.891 1773.2 551.248 1776.61 549.056C1780.01 546.864 1783.71 545.122 1787.49 543.96C1791.8 533.82 1795.86 532.762 1795.86 532.762C1801.61 536.851 1802.85 541.86 1803.1 543.12C1807.46 544.28 1811.3 546.836 1814.14 551.242C1824.03 566.616 1816.86 576.049 1808.59 582.79C1810.85 583.107 1813.65 584.704 1816.07 588.46C1819.52 593.818 1822.24 598.157 1823.11 599.509C1823.79 600.56 1825.35 601.329 1827.09 599.638C1833.32 591.834 1836.94 582.274 1837.44 572.303C1837.95 562.333 1835.32 552.455 1829.91 544.061C1815.66 521.927 1786.19 515.542 1764.06 529.791Z" fill="#596057" fill-opacity="0.38"/>
</g>
<g clip-path="url(#clip3_2_105)">
<path d="M2366.06 812.791C2343.93 827.041 2337.54 856.51 2351.79 878.643C2363.2 896.37 2384.31 903.96 2403.65 899.016C2405.88 898.077 2405.86 896.392 2405.18 895.34C2404.57 894.389 2402.49 891.266 2400.33 887.911C2391.46 896.244 2386.08 893.614 2383.83 891.876C2382.63 891.015 2378.39 888.717 2376.08 888.861C2374.19 889.013 2371 888.45 2374.32 886.239C2377.44 884.158 2381.6 885.662 2383.12 886.38C2390.63 890.118 2395.29 884.708 2396.92 882.173C2395.59 879.344 2395.51 876.914 2396.02 875.171C2386.46 879.908 2374.92 882.45 2365.06 867.126C2362.25 862.77 2361.49 858.165 2362.23 853.716C2361.19 852.973 2357.14 849.769 2355.8 842.842C2355.8 842.842 2358.48 839.631 2369.46 839.856C2372.08 836.891 2375.2 834.248 2378.61 832.056C2382.01 829.864 2385.71 828.122 2389.49 826.96C2393.8 816.82 2397.86 815.762 2397.86 815.762C2403.61 819.851 2404.85 824.86 2405.1 826.12C2409.46 827.28 2413.3 829.836 2416.14 834.242C2426.03 849.616 2418.86 859.049 2410.59 865.79C2412.85 866.107 2415.65 867.704 2418.07 871.46C2421.52 876.818 2424.24 881.157 2425.11 882.509C2425.79 883.56 2427.35 884.329 2429.09 882.638C2435.32 874.834 2438.94 865.274 2439.44 855.303C2439.95 845.333 2437.32 835.455 2431.91 827.061C2417.66 804.927 2388.19 798.542 2366.06 812.791Z" fill="#596057" fill-opacity="0.38"/>
</g>
<path d="M2166.24 695.62L2166.77 695.665C2171.65 696.092 2196.35 698.347 2202.87 700.699C2204.84 701.415 2206.58 702.636 2207.93 704.239C2209.28 705.841 2210.19 707.77 2210.56 709.832C2210.97 712.138 2211.14 715.159 2211.16 718.263L2211.17 718.885L2211.17 720.439L2211.17 721.061C2211.1 726.518 2210.72 731.602 2210.63 732.712L2210.6 733.158C2210.49 734.308 2209.98 739.729 2209.08 745.343L2208.98 745.962L2208.88 746.575C2208.29 749.945 2207.57 753.279 2206.71 755.705C2206 757.677 2204.78 759.429 2203.19 760.784C2201.59 762.14 2199.66 763.051 2197.6 763.427C2190.56 764.701 2164.38 762.633 2160.75 762.334L2159.91 762.264C2158.08 762.11 2150.49 761.437 2142.56 760.496L2141.56 760.375L2141.04 760.308L2140.03 760.182L2139.02 760.055C2132.46 759.211 2126.22 758.215 2123.4 757.189C2121.43 756.474 2119.68 755.255 2118.33 753.653C2116.98 752.051 2116.08 750.123 2115.71 748.061C2115.26 745.531 2115.1 742.117 2115.09 738.697L2115.09 738.07L2115.1 737.449C2115.14 733.402 2115.32 729.359 2115.63 725.324L2115.69 724.594C2115.81 723.319 2116.23 718.913 2116.96 714.073L2117.05 713.465L2117.09 713.158L2117.19 712.545L2117.45 711.013L2117.56 710.401C2118.11 707.344 2118.78 704.388 2119.57 702.189C2120.27 700.217 2121.49 698.465 2123.09 697.11C2124.69 695.754 2126.61 694.843 2128.67 694.467C2131.63 693.938 2137.94 693.99 2144.55 694.247L2145.57 694.29L2146.59 694.34L2147.1 694.365L2148.12 694.409C2153.79 694.702 2159.44 695.075 2165.1 695.53L2166.24 695.626L2166.24 695.62ZM2154.84 713.849L2152.44 742.444L2178.31 730.225L2154.84 713.849Z" fill="#596057" fill-opacity="0.38"/>
<path d="M1900.29 892.915L1900.59 893.356C1903.29 897.442 1916.88 918.19 1919.09 924.754C1919.76 926.742 1919.89 928.868 1919.47 930.922C1919.06 932.975 1918.11 934.884 1916.72 936.457C1915.17 938.212 1912.91 940.224 1910.5 942.175L1910.02 942.568L1908.8 943.535L1908.31 943.918C1903.99 947.257 1899.78 950.122 1898.85 950.744L1898.48 950.991C1897.52 951.627 1892.95 954.599 1888 957.384L1887.45 957.691L1886.91 957.99C1883.9 959.63 1880.84 961.138 1878.41 961.967C1876.42 962.639 1874.29 962.778 1872.24 962.37C1870.18 961.961 1868.27 961.019 1866.69 959.639C1861.32 954.917 1846.66 933.131 1844.64 930.105L1844.17 929.401C1843.15 927.869 1838.96 921.513 1834.76 914.718L1834.23 913.855L1833.97 913.411L1833.44 912.54L1832.91 911.669C1829.49 906.004 1826.39 900.503 1825.44 897.653C1824.77 895.667 1824.64 893.54 1825.05 891.487C1825.47 889.434 1826.42 887.526 1827.8 885.954C1829.5 884.027 1832.08 881.782 1834.75 879.647L1835.24 879.26L1835.73 878.877C1838.93 876.396 1842.2 874.019 1845.56 871.751L1846.17 871.345C1847.24 870.645 1850.95 868.232 1855.19 865.794L1855.73 865.488L1855.99 865.332L1856.53 865.028L1857.9 864.279L1858.45 863.985C1861.18 862.51 1863.91 861.199 1866.12 860.449C1868.11 859.776 1870.23 859.637 1872.29 860.046C1874.34 860.455 1876.26 861.396 1877.83 862.777C1880.08 864.762 1883.97 869.739 1887.88 875.077L1888.48 875.896L1889.07 876.729L1889.37 877.146L1889.97 877.971C1893.27 882.588 1896.49 887.252 1899.65 891.962L1900.29 892.919L1900.29 892.915ZM1878.93 895.325L1855.04 911.227L1880.7 923.889L1878.93 895.325Z" fill="#596057" fill-opacity="0.38"/>
<path d="M2139.45 931.392C2141.55 931.288 2143.61 932.024 2145.17 933.438C2146.73 934.852 2147.67 936.828 2147.77 938.931L2150.52 994.449C2150.62 996.553 2149.88 998.611 2148.47 1000.17C2147.06 1001.73 2145.08 1002.67 2142.98 1002.77L2087.46 1005.52C2085.35 1005.62 2083.3 1004.88 2081.74 1003.47C2080.17 1002.06 2079.24 1000.08 2079.14 997.976L2076.39 942.458C2076.29 940.355 2077.02 938.296 2078.44 936.735C2079.85 935.174 2081.83 934.239 2083.93 934.135L2139.45 931.392ZM2140.5 992.956L2139.47 971.939C2139.3 968.51 2137.77 965.289 2135.23 962.985C2132.68 960.68 2129.33 959.48 2125.9 959.65C2122.53 959.816 2118.7 962.072 2116.95 965.26L2116.74 960.858L2105.67 961.405L2107.31 994.596L2118.38 994.05L2117.41 974.499C2117.26 971.446 2119.59 968.826 2122.65 968.675C2124.12 968.603 2125.56 969.118 2126.65 970.107C2127.75 971.097 2128.4 972.48 2128.47 973.953L2129.44 993.503L2140.5 992.956ZM2092.48 955.815C2094.24 955.728 2095.9 954.943 2097.09 953.631C2098.28 952.32 2098.9 950.591 2098.81 948.824C2098.63 945.136 2095.5 942.269 2091.82 942.451C2090.04 942.539 2088.37 943.33 2087.17 944.649C2085.98 945.967 2085.36 947.707 2085.44 949.484C2085.63 953.172 2088.79 955.998 2092.48 955.815ZM2099.94 994.961L2098.3 961.769L2087.31 962.312L2088.95 995.504L2099.94 994.961Z" fill="#596057" fill-opacity="0.38"/>
<path d="M1226.93 787.816C1229.04 787.712 1231.1 788.448 1232.66 789.862C1234.22 791.276 1235.15 793.252 1235.26 795.356L1238 850.874C1238.1 852.977 1237.37 855.036 1235.95 856.597C1234.54 858.157 1232.56 859.093 1230.46 859.197L1174.94 861.94C1172.84 862.044 1170.78 861.308 1169.22 859.894C1167.66 858.48 1166.72 856.504 1166.62 854.401L1163.88 798.883C1163.77 796.779 1164.51 794.72 1165.92 793.16C1167.34 791.599 1169.31 790.663 1171.42 790.56L1226.93 787.816ZM1227.99 849.381L1226.95 828.363C1226.78 824.934 1225.26 821.714 1222.71 819.409C1220.17 817.104 1216.81 815.905 1213.38 816.074C1210.01 816.241 1206.19 818.497 1204.44 821.684L1204.22 817.282L1193.16 817.829L1194.8 851.021L1205.86 850.474L1204.89 830.924C1204.74 827.87 1207.08 825.25 1210.13 825.1C1211.6 825.027 1213.05 825.542 1214.14 826.532C1215.23 827.521 1215.89 828.905 1215.96 830.377L1216.92 849.927L1227.99 849.381ZM1179.96 812.24C1181.73 812.152 1183.39 811.367 1184.57 810.056C1185.76 808.745 1186.38 807.015 1186.29 805.248C1186.11 801.56 1182.99 798.694 1179.3 798.876C1177.52 798.964 1175.85 799.754 1174.66 801.073C1173.46 802.392 1172.84 804.131 1172.93 805.909C1173.11 809.597 1176.27 812.422 1179.96 812.24ZM1187.42 851.385L1185.78 818.193L1174.8 818.736L1176.44 851.928L1187.42 851.385Z" fill="#596057" fill-opacity="0.38"/>
<path d="M1481.93 421.876C1484.04 421.772 1486.1 422.508 1487.66 423.922C1489.22 425.336 1490.15 427.312 1490.26 429.416L1493 484.934C1493.1 487.037 1492.37 489.096 1490.95 490.657C1489.54 492.218 1487.56 493.153 1485.46 493.257L1429.94 496C1427.84 496.104 1425.78 495.368 1424.22 493.954C1422.66 492.54 1421.72 490.564 1421.62 488.461L1418.88 432.943C1418.77 430.839 1419.51 428.781 1420.92 427.22C1422.34 425.659 1424.31 424.724 1426.42 424.62L1481.93 421.876ZM1482.99 483.441L1481.95 462.423C1481.78 458.995 1480.26 455.774 1477.71 453.469C1475.17 451.164 1471.81 449.965 1468.38 450.134C1465.01 450.301 1461.19 452.557 1459.44 455.744L1459.22 451.342L1448.16 451.889L1449.8 485.081L1460.86 484.534L1459.89 464.984C1459.74 461.93 1462.08 459.311 1465.13 459.16C1466.6 459.087 1468.05 459.602 1469.14 460.592C1470.23 461.582 1470.89 462.965 1470.96 464.437L1471.92 483.987L1482.99 483.441ZM1434.96 446.3C1436.73 446.213 1438.39 445.427 1439.57 444.116C1440.76 442.805 1441.38 441.075 1441.29 439.308C1441.11 435.62 1437.99 432.754 1434.3 432.936C1432.52 433.024 1430.85 433.814 1429.66 435.133C1428.46 436.452 1427.84 438.191 1427.93 439.969C1428.11 443.657 1431.27 446.482 1434.96 446.3ZM1442.42 485.445L1440.78 452.253L1429.8 452.796L1431.44 485.988L1442.42 485.445Z" fill="#596057" fill-opacity="0.38"/>
<path d="M1088.81 421.242L1089.3 421.027C1093.78 419.053 1116.51 409.133 1123.36 408.057C1125.43 407.737 1127.54 407.966 1129.5 408.721C1131.45 409.475 1133.18 410.73 1134.49 412.359C1135.96 414.182 1137.57 416.748 1139.09 419.456L1139.39 419.997L1140.14 421.359L1140.44 421.906C1143 426.722 1145.12 431.361 1145.58 432.376L1145.76 432.784C1146.22 433.842 1148.39 438.838 1150.3 444.193L1150.51 444.783L1150.71 445.371C1151.83 448.605 1152.8 451.875 1153.21 454.418C1153.54 456.488 1153.32 458.607 1152.57 460.565C1151.82 462.522 1150.57 464.249 1148.94 465.571C1143.39 470.077 1119.45 480.871 1116.12 482.356L1115.35 482.7C1113.67 483.448 1106.7 486.509 1099.3 489.503L1098.36 489.882L1097.88 490.071L1096.93 490.447L1095.98 490.823C1089.82 493.243 1083.88 495.373 1080.91 495.833C1078.84 496.156 1076.72 495.929 1074.77 495.175C1072.81 494.421 1071.09 493.166 1069.77 491.537C1068.16 489.537 1066.38 486.62 1064.72 483.628L1064.42 483.076L1064.13 482.529C1062.22 478.961 1060.43 475.333 1058.75 471.648L1058.46 470.979C1057.95 469.804 1056.19 465.742 1054.5 461.149L1054.29 460.571L1054.18 460.281L1053.97 459.696L1053.46 458.228L1053.26 457.637C1052.27 454.697 1051.43 451.782 1051.07 449.476C1050.74 447.406 1050.96 445.286 1051.71 443.329C1052.45 441.371 1053.7 439.645 1055.33 438.323C1057.66 436.436 1063.22 433.442 1069.14 430.482L1070.05 430.033L1070.97 429.584L1071.43 429.359L1072.35 428.907C1077.45 426.436 1082.59 424.039 1087.76 421.715L1088.81 421.248L1088.81 421.242ZM1087.6 442.707L1099.26 468.926L1116.05 445.758L1087.6 442.707Z" fill="#596057" fill-opacity="0.38"/>
<path d="M963.648 996.468C962.282 993.271 960.961 990.055 959.684 986.821L959.355 985.957C958.975 984.959 958.609 983.971 958.166 982.777C956.412 978.016 955.802 974.518 955.705 971.265C955.595 967.898 956.073 964.82 957.482 961.349C958.731 958.191 960.653 955.344 963.115 953.004C965.452 950.739 968.33 948.653 972.906 946.46C974.051 945.914 975.007 945.458 975.975 945.008L976.815 944.622C979.982 943.191 983.168 941.805 986.374 940.462L989.645 939.074L995.394 936.644C998.591 935.28 1001.81 933.96 1005.04 932.685L1005.9 932.352C1006.9 931.971 1007.89 931.605 1009.08 931.163C1013.85 929.408 1017.35 928.808 1020.6 928.706C1023.99 928.566 1027.38 929.171 1030.51 930.478C1033.67 931.73 1036.52 933.653 1038.86 936.115C1041.12 938.452 1043.21 941.327 1045.4 945.903C1045.95 947.052 1046.4 948.003 1046.85 948.971L1047.24 949.812C1048.67 952.98 1050.06 956.168 1051.4 959.375L1052.79 962.646L1055.22 968.39C1056.58 971.588 1057.9 974.804 1059.18 978.038L1059.51 978.901C1059.91 979.958 1060.31 981.018 1060.7 982.081C1062.45 986.842 1063.05 990.344 1063.16 993.599C1063.3 996.993 1062.69 1000.37 1061.38 1003.51C1060.13 1006.67 1058.21 1009.52 1055.75 1011.86C1053.41 1014.13 1050.54 1016.21 1045.96 1018.4C1044.94 1018.89 1043.92 1019.38 1042.89 1019.85L1042.05 1020.24C1038.88 1021.67 1035.7 1023.06 1032.49 1024.41L1023.47 1028.22C1020.27 1029.59 1017.06 1030.91 1013.83 1032.18L1012.96 1032.51C1011.96 1032.89 1010.97 1033.26 1009.78 1033.7C1005.02 1035.46 1001.52 1036.06 998.266 1036.16C994.871 1036.3 991.488 1035.69 988.355 1034.37C985.195 1033.13 982.345 1031.21 980.003 1028.75C977.736 1026.41 975.654 1023.54 973.459 1018.96L972.007 1015.89L971.625 1015.05C970.192 1011.88 968.802 1008.7 967.457 1005.49L963.648 996.468ZM987.495 991.705C988.683 994.629 990.44 997.288 992.664 999.528C994.889 1001.77 997.536 1003.54 1000.45 1004.75C1003.37 1005.96 1006.5 1006.57 1009.65 1006.56C1012.81 1006.55 1015.93 1005.91 1018.84 1004.68C1021.75 1003.45 1024.38 1001.66 1026.59 999.403C1028.8 997.147 1030.53 994.475 1031.7 991.542C1032.87 988.608 1033.44 985.473 1033.38 982.317C1033.32 979.161 1032.64 976.048 1031.37 973.158C1028.91 967.339 1024.24 962.735 1018.39 960.36C1012.53 957.985 1005.98 958.032 1000.16 960.492C994.338 962.951 989.734 967.622 987.359 973.476C984.984 979.33 985.035 985.886 987.495 991.705ZM996.271 987.995C995.5 986.26 995.082 984.388 995.042 982.49C995.002 980.592 995.341 978.704 996.038 976.938C996.736 975.172 997.778 973.563 999.105 972.204C1000.43 970.846 1002.02 969.765 1003.76 969.025C1005.51 968.286 1007.39 967.902 1009.29 967.897C1011.19 967.891 1013.07 968.264 1014.82 968.994C1016.58 969.724 1018.17 970.795 1019.5 972.147C1020.83 973.498 1021.89 975.101 1022.59 976.863C1024.07 980.355 1024.1 984.289 1022.67 987.802C1021.25 991.314 1018.49 994.116 1014.99 995.592C1011.5 997.068 1007.57 997.096 1004.06 995.671C1000.54 994.246 997.741 991.484 996.265 987.992L996.271 987.995ZM971.175 971.449C971.83 972.841 972.998 973.925 974.435 974.475C975.871 975.025 977.465 974.997 978.882 974.398C980.298 973.799 981.428 972.676 982.035 971.262C982.642 969.849 982.678 968.255 982.137 966.816C981.522 965.361 980.354 964.21 978.89 963.616C977.427 963.023 975.788 963.034 974.333 963.649C972.878 964.264 971.727 965.432 971.133 966.895C970.54 968.359 970.551 969.998 971.166 971.453L971.175 971.449Z" fill="#596057" fill-opacity="0.38"/>
<g clip-path="url(#clip4_2_105)">
<path d="M755.061 171.791C732.927 186.041 726.542 215.51 740.791 237.643C752.204 255.37 773.311 262.96 792.652 258.016C794.881 257.077 794.858 255.392 794.181 254.34C793.569 253.389 791.488 250.266 789.328 246.911C780.455 255.244 775.079 252.614 772.827 250.876C771.635 250.015 767.393 247.717 765.078 247.861C763.192 248.013 759.996 247.45 763.319 245.239C766.441 243.158 770.597 244.662 772.122 245.38C779.628 249.118 784.291 243.708 785.917 241.173C784.591 238.344 784.515 235.914 785.022 234.171C775.463 238.908 763.925 241.45 754.059 226.126C751.255 221.77 750.486 217.165 751.234 212.716C750.189 211.973 746.143 208.769 744.8 201.842C744.8 201.842 747.478 198.631 758.46 198.856C761.085 195.891 764.2 193.248 767.605 191.056C771.01 188.864 774.706 187.122 778.491 185.96C782.799 175.82 786.864 174.762 786.864 174.762C792.613 178.851 793.855 183.86 794.099 185.12C798.458 186.28 802.3 188.836 805.137 193.242C815.034 208.616 807.862 218.049 799.594 224.79C801.852 225.107 804.651 226.704 807.069 230.46C810.519 235.818 813.241 240.157 814.112 241.509C814.789 242.56 816.346 243.329 818.091 241.638C824.316 233.834 827.936 224.274 828.443 214.303C828.949 204.333 826.315 194.455 820.913 186.061C806.663 163.927 777.194 157.542 755.061 171.791Z" fill="#596057" fill-opacity="0.38"/>
</g>
<path d="M1474.45 969.392C1476.55 969.288 1478.61 970.024 1480.17 971.438C1481.73 972.852 1482.67 974.828 1482.77 976.931L1485.52 1032.45C1485.62 1034.55 1484.88 1036.61 1483.47 1038.17C1482.06 1039.73 1480.08 1040.67 1477.98 1040.77L1422.46 1043.52C1420.35 1043.62 1418.3 1042.88 1416.74 1041.47C1415.17 1040.06 1414.24 1038.08 1414.14 1035.98L1411.39 980.458C1411.29 978.355 1412.02 976.296 1413.44 974.735C1414.85 973.174 1416.83 972.239 1418.93 972.135L1474.45 969.392ZM1475.5 1030.96L1474.47 1009.94C1474.3 1006.51 1472.77 1003.29 1470.23 1000.98C1467.68 998.68 1464.33 997.48 1460.9 997.65C1457.53 997.816 1453.7 1000.07 1451.95 1003.26L1451.74 998.858L1440.67 999.405L1442.31 1032.6L1453.38 1032.05L1452.41 1012.5C1452.26 1009.45 1454.59 1006.83 1457.65 1006.68C1459.12 1006.6 1460.56 1007.12 1461.65 1008.11C1462.75 1009.1 1463.4 1010.48 1463.47 1011.95L1464.44 1031.5L1475.5 1030.96ZM1427.48 993.815C1429.24 993.728 1430.9 992.943 1432.09 991.631C1433.28 990.32 1433.9 988.591 1433.81 986.824C1433.63 983.136 1430.5 980.269 1426.82 980.451C1425.04 980.539 1423.37 981.33 1422.17 982.649C1420.98 983.967 1420.36 985.707 1420.44 987.484C1420.63 991.172 1423.79 993.998 1427.48 993.815ZM1434.94 1032.96L1433.3 999.769L1422.31 1000.31L1423.95 1033.5L1434.94 1032.96Z" fill="#596057" fill-opacity="0.38"/>
<path d="M245.061 744.791C222.927 759.041 216.542 788.51 230.791 810.643C242.204 828.37 263.311 835.96 282.652 831.016C284.881 830.077 284.858 828.392 284.181 827.34C283.569 826.389 281.488 823.266 279.328 819.911C270.455 828.244 265.079 825.614 262.827 823.876C261.635 823.015 257.393 820.717 255.078 820.861C253.192 821.013 249.996 820.45 253.319 818.239C256.441 816.158 260.597 817.662 262.122 818.38C269.628 822.118 274.291 816.708 275.917 814.173C274.591 811.344 274.515 808.914 275.022 807.171C265.463 811.908 253.925 814.45 244.059 799.126C241.255 794.77 240.486 790.165 241.234 785.716C240.189 784.973 236.143 781.769 234.8 774.842C234.8 774.842 237.478 771.631 248.46 771.856C251.085 768.891 254.2 766.248 257.605 764.056C261.01 761.864 264.706 760.122 268.491 758.96C272.799 748.82 276.864 747.762 276.864 747.762C282.613 751.851 283.855 756.86 284.099 758.12C288.458 759.28 292.3 761.836 295.137 766.242C305.034 781.616 297.862 791.049 289.594 797.79C291.852 798.107 294.651 799.704 297.069 803.46C300.519 808.818 303.241 813.157 304.112 814.509C304.789 815.56 306.346 816.329 308.091 814.638C314.316 806.834 317.936 797.274 318.443 787.303C318.949 777.333 316.315 767.455 310.913 759.061C296.663 736.927 267.194 730.542 245.061 744.791Z" fill="#596057" fill-opacity="0.38"/>
<path d="M166.934 926.876C169.037 926.772 171.096 927.508 172.657 928.922C174.218 930.336 175.153 932.312 175.257 934.416L178 989.934C178.104 992.037 177.368 994.096 175.954 995.657C174.54 997.218 172.564 998.153 170.461 998.257L114.943 1001C112.839 1001.1 110.781 1000.37 109.22 998.954C107.659 997.54 106.724 995.564 106.62 993.461L103.877 937.943C103.773 935.839 104.508 933.781 105.922 932.22C107.336 930.659 109.312 929.724 111.416 929.62L166.934 926.876ZM167.988 988.441L166.95 967.423C166.78 963.995 165.256 960.774 162.712 958.469C160.167 956.164 156.812 954.965 153.383 955.134C150.012 955.301 146.188 957.557 144.438 960.744L144.22 956.342L133.156 956.889L134.796 990.081L145.86 989.534L144.894 969.984C144.743 966.93 147.079 964.311 150.132 964.16C151.605 964.087 153.046 964.602 154.138 965.592C155.231 966.582 155.886 967.965 155.958 969.437L156.924 988.987L167.988 988.441ZM119.961 951.3C121.727 951.213 123.387 950.427 124.575 949.116C125.763 947.805 126.381 946.075 126.294 944.308C126.111 940.62 122.988 937.754 119.3 937.936C117.523 938.024 115.853 938.814 114.658 940.133C113.464 941.452 112.842 943.191 112.93 944.969C113.112 948.657 116.273 951.482 119.961 951.3ZM127.42 990.445L125.78 957.253L114.796 957.796L116.436 990.988L127.42 990.445Z" fill="#596057" fill-opacity="0.38"/>
<path d="M2547.42 788.36C2545.83 785.269 2544.28 782.156 2542.78 779.022L2542.39 778.183C2541.94 777.215 2541.5 776.256 2540.97 775.097C2538.88 770.473 2538.03 767.028 2537.7 763.79C2537.35 760.439 2537.6 757.335 2538.76 753.772C2539.78 750.533 2541.49 747.555 2543.78 745.046C2545.95 742.619 2548.67 740.333 2553.08 737.818C2554.18 737.191 2555.1 736.669 2556.04 736.15L2556.85 735.705C2559.9 734.051 2562.98 732.44 2566.08 730.872L2569.25 729.253L2574.81 726.419C2577.9 724.829 2581.01 723.282 2584.15 721.779L2584.98 721.385C2585.95 720.934 2586.91 720.498 2588.07 719.971C2592.69 717.881 2596.14 717.031 2599.38 716.697C2602.75 716.314 2606.17 716.676 2609.39 717.756C2612.63 718.778 2615.61 720.493 2618.12 722.781C2620.55 724.95 2622.83 727.668 2625.35 732.075C2625.98 733.183 2626.5 734.099 2627.02 735.032L2627.46 735.843C2629.12 738.9 2630.73 741.981 2632.3 745.083L2633.92 748.247L2636.75 753.803C2638.34 756.895 2639.88 760.008 2641.39 763.143L2641.78 763.979C2642.26 765.006 2642.73 766.035 2643.2 767.066C2645.29 771.69 2646.14 775.139 2646.47 778.379C2646.85 781.754 2646.49 785.171 2645.41 788.391C2644.39 791.632 2642.68 794.613 2640.39 797.123C2638.22 799.55 2635.5 801.834 2631.09 804.349C2630.11 804.91 2629.12 805.466 2628.14 806.017L2627.32 806.458C2624.27 808.115 2621.19 809.73 2618.09 811.301L2609.36 815.751C2606.27 817.341 2603.16 818.888 2600.03 820.392L2599.19 820.782C2598.22 821.233 2597.26 821.671 2596.1 822.196C2591.47 824.288 2588.03 825.144 2584.79 825.477C2581.41 825.854 2578 825.487 2574.78 824.401C2571.54 823.385 2568.56 821.675 2566.05 819.388C2563.62 817.215 2561.33 814.501 2558.82 810.09L2557.15 807.133L2556.71 806.32C2555.05 803.265 2553.44 800.188 2551.87 797.088L2547.42 788.36ZM2570.87 781.903C2572.26 784.735 2574.2 787.261 2576.58 789.336C2578.96 791.411 2581.73 792.992 2584.72 793.987C2587.72 794.983 2590.88 795.374 2594.03 795.136C2597.18 794.899 2600.25 794.038 2603.06 792.604C2605.87 791.171 2608.37 789.192 2610.41 786.784C2612.45 784.376 2613.99 781.587 2614.95 778.578C2615.9 775.568 2616.25 772.4 2615.96 769.256C2615.68 766.112 2614.78 763.056 2613.3 760.264C2610.43 754.636 2605.45 750.379 2599.44 748.428C2593.43 746.478 2586.89 746.994 2581.26 749.864C2575.64 752.734 2571.38 757.722 2569.43 763.73C2567.48 769.739 2568 776.275 2570.87 781.903ZM2579.36 777.575C2578.46 775.899 2577.91 774.062 2577.74 772.172C2577.56 770.281 2577.76 768.374 2578.33 766.563C2578.9 764.752 2579.83 763.072 2581.05 761.622C2582.28 760.172 2583.78 758.98 2585.47 758.118C2587.16 757.255 2589.01 756.738 2590.9 756.597C2592.8 756.455 2594.7 756.693 2596.5 757.295C2598.3 757.898 2599.96 758.853 2601.39 760.105C2602.82 761.357 2603.98 762.881 2604.81 764.588C2606.54 767.965 2606.85 771.888 2605.68 775.493C2604.51 779.098 2601.95 782.091 2598.57 783.813C2595.2 785.535 2591.27 785.844 2587.67 784.674C2584.06 783.504 2581.07 780.949 2579.35 777.573L2579.36 777.575ZM2553.14 762.867C2553.89 764.208 2555.14 765.206 2556.61 765.652C2558.08 766.097 2559.67 765.956 2561.04 765.257C2562.41 764.558 2563.45 763.357 2563.96 761.903C2564.46 760.45 2564.39 758.858 2563.74 757.461C2563.02 756.054 2561.78 754.99 2560.28 754.502C2558.77 754.015 2557.14 754.144 2555.73 754.861C2554.32 755.579 2553.26 756.826 2552.77 758.328C2552.28 759.83 2552.41 761.464 2553.13 762.871L2553.14 762.867Z" fill="#596057" fill-opacity="0.38"/>
<path d="M97.8115 617.242L98.2958 617.027C102.776 615.053 125.514 605.133 132.356 604.057C134.426 603.737 136.545 603.966 138.499 604.721C140.454 605.475 142.176 606.73 143.494 608.359C144.963 610.182 146.568 612.748 148.085 615.456L148.391 615.997L149.141 617.359L149.436 617.906C152.003 622.722 154.118 627.361 154.577 628.376L154.758 628.784C155.222 629.842 157.386 634.838 159.299 640.193L159.51 640.783L159.713 641.371C160.825 644.605 161.798 647.875 162.206 650.418C162.535 652.488 162.315 654.607 161.567 656.565C160.819 658.522 159.569 660.249 157.944 661.571C152.387 666.077 128.447 676.871 125.125 678.356L124.352 678.7C122.67 679.448 115.701 682.509 108.298 685.503L107.358 685.882L106.875 686.071L105.928 686.447L104.98 686.823C98.8214 689.243 92.8782 691.373 89.9085 691.833C87.8387 692.156 85.7205 691.929 83.7662 691.175C81.8119 690.421 80.09 689.166 78.773 687.537C77.1594 685.537 75.3792 682.62 73.7223 679.628L73.4245 679.076L73.1292 678.529C71.2201 674.961 69.4274 671.333 67.7538 667.648L67.456 666.979C66.9464 665.804 65.1911 661.742 63.4997 657.149L63.2884 656.571L63.1789 656.281L62.9706 655.696L62.4609 654.228L62.2635 653.637C61.2682 650.697 60.4344 647.782 60.0664 645.476C59.7369 643.406 59.9573 641.286 60.7053 639.329C61.4534 637.371 62.7029 635.645 64.3287 634.323C66.6641 632.436 72.2223 629.442 78.1416 626.482L79.0497 626.033L79.9712 625.584L80.4319 625.359L81.3455 624.907C86.4503 622.436 91.5902 620.039 96.7637 617.715L97.8139 617.248L97.8115 617.242ZM96.5986 638.707L108.263 664.926L125.055 641.758L96.5986 638.707Z" fill="#596057" fill-opacity="0.38"/>
<path d="M208.045 517.437C209.159 514.144 210.32 510.866 211.526 507.606L211.857 506.742C212.239 505.745 212.626 504.765 213.092 503.58C214.961 498.862 216.84 495.85 218.938 493.361C221.102 490.779 223.511 488.805 226.876 487.158C229.913 485.639 233.244 484.8 236.638 484.699C239.891 484.57 243.426 484.936 248.299 486.354C249.516 486.711 250.532 487.009 251.554 487.319L252.437 487.592C255.751 488.638 259.05 489.731 262.333 490.869L265.696 492.017L271.6 494.041C274.892 495.157 278.169 496.319 281.429 497.526L282.294 497.853C283.291 498.235 284.272 498.622 285.456 499.088C290.174 500.957 293.183 502.845 295.674 504.938C298.296 507.098 300.414 509.806 301.878 512.872C303.396 515.911 304.235 519.243 304.336 522.639C304.465 525.891 304.101 529.422 302.682 534.294C302.324 535.516 302.027 536.528 301.717 537.549L301.445 538.433C300.398 541.748 299.305 545.049 298.166 548.333L297.018 551.697L294.996 557.596C293.879 560.888 292.717 564.165 291.51 567.425L291.183 568.29C290.778 569.347 290.366 570.401 289.948 571.452C288.079 576.17 286.191 579.179 284.097 581.674C281.936 584.294 279.229 586.41 276.165 587.874C273.126 589.395 269.793 590.236 266.396 590.337C263.144 590.466 259.613 590.101 254.74 588.683C253.654 588.366 252.569 588.045 251.485 587.718L250.603 587.441C247.287 586.397 243.986 585.307 240.7 584.171L231.435 580.995C228.143 579.88 224.867 578.72 221.608 577.515L220.745 577.184C219.748 576.802 218.763 576.414 217.582 575.949C212.86 574.078 209.853 572.201 207.359 570.102C204.74 567.938 202.627 565.226 201.168 562.158C199.644 559.123 198.801 555.791 198.698 552.397C198.571 549.14 198.934 545.613 200.354 540.736L201.319 537.481L201.596 536.599C202.639 533.285 203.729 529.985 204.864 526.7L208.045 517.437ZM228.989 529.794C227.923 532.765 227.459 535.919 227.622 539.071C227.786 542.223 228.574 545.311 229.941 548.156C231.309 551.001 233.228 553.546 235.587 555.642C237.947 557.739 240.699 559.346 243.685 560.37C246.671 561.393 249.831 561.813 252.98 561.605C256.13 561.397 259.207 560.565 262.032 559.158C264.857 557.75 267.374 555.795 269.438 553.407C271.501 551.018 273.069 548.243 274.05 545.243C276.099 539.267 275.69 532.721 272.913 527.047C270.136 521.373 265.218 517.034 259.242 514.985C253.266 512.936 246.721 513.345 241.047 516.122C235.372 518.899 231.038 523.818 228.989 529.794ZM238.002 532.884C238.585 531.077 239.522 529.404 240.758 527.963C241.994 526.522 243.506 525.342 245.203 524.491C246.901 523.641 248.751 523.137 250.646 523.01C252.54 522.882 254.441 523.133 256.238 523.749C258.034 524.364 259.689 525.332 261.108 526.594C262.526 527.857 263.678 529.389 264.498 531.102C265.317 532.815 265.787 534.674 265.88 536.571C265.973 538.467 265.686 540.363 265.038 542.148C263.809 545.734 261.206 548.684 257.801 550.35C254.396 552.017 250.469 552.262 246.884 551.033C243.298 549.803 240.348 547.2 238.681 543.796C237.015 540.391 236.77 536.464 237.999 532.878L238.002 532.884ZM230.34 503.817C229.9 505.291 230.047 506.878 230.751 508.246C231.455 509.614 232.66 510.656 234.115 511.155C235.57 511.654 237.162 511.57 238.556 510.922C239.951 510.274 241.041 509.111 241.598 507.677C242.11 506.183 242.008 504.547 241.313 503.128C240.619 501.709 239.39 500.625 237.896 500.112C236.402 499.6 234.766 499.703 233.347 500.397C231.928 501.091 230.844 502.32 230.331 503.814L230.34 503.817Z" fill="#596057" fill-opacity="0.38"/>
<g clip-path="url(#clip5_2_105)">
<path d="M297.629 175.898L299.026 176.523C311.901 182.342 377.034 212.061 392.532 224.685C397.211 228.515 400.803 233.506 402.949 239.159C405.095 244.812 405.719 250.929 404.76 256.899C403.676 263.57 401.258 271.96 398.367 280.44L397.793 282.142L396.313 286.375L395.708 288.063C390.309 302.859 384.424 316.345 383.126 319.286L382.6 320.463C381.222 323.499 374.662 337.776 366.847 352.206L365.984 353.797L365.113 355.365C360.312 363.988 355.162 372.38 350.485 378.158C346.675 382.855 341.697 386.467 336.051 388.633C330.405 390.8 324.288 391.443 318.314 390.5C297.924 387.249 228.598 356.633 219.005 352.358L216.777 351.361C211.929 349.191 191.921 340.123 171.221 329.991L168.596 328.703L167.259 328.03L164.625 326.719L161.992 325.408C144.921 316.845 128.893 308.183 122.179 302.692C117.497 298.868 113.903 293.88 111.755 288.229C109.608 282.578 108.983 276.462 109.944 270.493C111.131 263.172 113.966 253.725 117.198 244.4L117.81 242.696L118.414 241.009C122.398 230.031 126.738 219.186 131.425 208.49L132.289 206.561C133.83 203.201 139.173 191.601 145.779 179.115L146.612 177.548L147.024 176.754L147.88 175.178L150.051 171.254L150.938 169.692C155.336 161.887 159.989 154.478 164.235 149.241C168.045 144.545 173.023 140.932 178.669 138.766C184.316 136.6 190.432 135.956 196.406 136.9C204.959 138.28 222.104 144.447 239.87 151.458L242.586 152.541L245.327 153.655L246.697 154.212L249.429 155.303C264.575 161.506 279.632 167.925 294.595 174.558L297.622 175.914L297.629 175.898ZM249.186 214.665L215.353 290.254L297.481 281.667L249.186 214.665Z" fill="#1D1A1A"/>
</g>
<g clip-path="url(#clip6_2_105)">
<path d="M42.0606 113.791C19.9271 128.041 13.5416 157.51 27.7914 179.643C39.2041 197.37 60.3109 204.96 79.6524 200.016C81.8811 199.077 81.8585 197.392 81.1814 196.34C80.5689 195.389 78.4878 192.266 76.3277 188.911C67.4554 197.244 62.0788 194.614 59.8269 192.876C58.6347 192.015 54.3927 189.717 52.0776 189.861C50.1919 190.013 46.996 189.45 50.3189 187.239C53.4414 185.158 57.5969 186.662 59.1218 187.38C66.6282 191.118 71.2908 185.708 72.9172 183.173C71.5913 180.344 71.5145 177.914 72.0215 176.171C62.4632 180.908 50.9246 183.45 41.0594 168.126C38.2546 163.77 37.4858 159.165 38.2342 154.716C37.1888 153.973 33.1431 150.769 31.8001 143.842C31.8001 143.842 34.4782 140.631 45.4604 140.856C48.0849 137.891 51.1999 135.248 54.6051 133.056C58.0102 130.864 61.7055 129.122 65.4907 127.96C69.7994 117.82 73.8637 116.762 73.8637 116.762C79.6134 120.851 80.8549 125.86 81.0991 127.12C85.4583 128.28 89.2997 130.836 92.1367 135.242C102.034 150.616 94.8622 160.049 86.5935 166.79C88.8517 167.107 91.6511 168.704 94.069 172.46C97.5186 177.818 100.241 182.157 101.112 183.509C101.789 184.56 103.346 185.329 105.091 183.638C111.316 175.834 114.936 166.274 115.443 156.303C115.949 146.333 113.315 136.455 107.913 128.061C93.6628 105.927 64.1941 99.5417 42.0606 113.791Z" fill="#596057" fill-opacity="0.38"/>
</g>
<defs>
<clipPath id="clip0_2_105">
<rect width="374.702" height="374.702" fill="white" transform="translate(1658 435.45) rotate(-71.0765)"/>
</clipPath>
<clipPath id="clip1_2_105">
<rect width="258" height="258" fill="white" transform="translate(2326 398.662) rotate(-32.7738)"/>
</clipPath>
<clipPath id="clip2_2_105">
<rect width="95.29" height="95.29" fill="white" transform="translate(1724 555.583) rotate(-32.7738)"/>
</clipPath>
<clipPath id="clip3_2_105">
<rect width="95.29" height="95.29" fill="white" transform="translate(2326 838.583) rotate(-32.7738)"/>
</clipPath>
<clipPath id="clip4_2_105">
<rect width="95.29" height="95.29" fill="white" transform="translate(715 197.583) rotate(-32.7738)"/>
</clipPath>
<clipPath id="clip5_2_105">
<rect width="275.019" height="275.019" fill="white" transform="translate(185.356 88) rotate(24.113)"/>
</clipPath>
<clipPath id="clip6_2_105">
<rect width="95.29" height="95.29" fill="white" transform="translate(2 139.583) rotate(-32.7738)"/>
</clipPath>
</defs>
</svg>
