<svg width="2702" height="1427" viewBox="0 0 2702 1427" fill="none" xmlns="http://www.w3.org/2000/svg">
<path fill-rule="evenodd" clip-rule="evenodd" d="M2699.57 262.444L2624.8 309.253C2550.03 352.951 2400.48 443.457 2250.6 375.363C2100.72 310.379 1948.63 83.6875 1799.04 152.425C1649.45 221.163 1500.08 391.077 1350.34 391.398C1200.61 391.72 1050.51 222.45 900.576 132.587C748.774 42.7276 599.426 223.419 449.736 245.509C300.047 267.6 150.023 134.199 75.0083 65.944L4.84586e-05 0.798635L2.31177 1076.8L77.1798 1076.64C152.048 1076.47 301.784 1076.15 451.52 1075.83C601.256 1075.51 750.992 1075.19 902.6 1074.86C1052.34 1074.54 1202.07 1074.22 1351.81 1073.9C1501.54 1073.58 1651.28 1073.25 1801.02 1072.93C1950.75 1072.61 2102.36 1072.28 2252.1 1071.96C2401.83 1071.64 2551.57 1071.32 2626.44 1071.16L2701.31 1071L2699.57 262.444Z" fill="#D3DDCE"/>
<g clip-path="url(#clip0_2_105)">
<path d="M2022.27 222.812C2019.49 211.765 2016.55 200.756 2013.46 189.79L2012.6 186.883C2011.61 183.526 2010.6 180.223 2009.39 176.231C2004.51 160.332 1999.16 150.003 1992.96 141.325C1986.56 132.327 1979.2 125.25 1968.64 118.995C1959.11 113.241 1948.45 109.632 1937.39 108.417C1926.79 107.148 1915.15 107.424 1898.86 110.789C1894.79 111.638 1891.4 112.346 1887.98 113.093L1885.02 113.754C1873.92 116.31 1862.86 119.019 1851.84 121.881L1840.55 124.756L1820.74 129.83C1809.69 132.62 1798.69 135.563 1787.72 138.658L1784.81 139.5C1781.45 140.489 1778.15 141.496 1774.16 142.712C1758.26 147.589 1747.94 152.973 1739.26 159.161C1730.13 165.534 1722.5 173.829 1716.92 183.463C1711.17 192.995 1707.56 203.664 1706.35 214.73C1705.08 225.321 1705.35 236.952 1708.72 253.238C1709.57 257.323 1710.27 260.704 1711.02 264.123L1711.68 267.08C1714.24 278.183 1716.95 289.249 1719.81 300.277L1722.69 311.563L1727.76 331.361C1730.55 342.408 1733.49 353.415 1736.58 364.38L1737.43 367.29C1738.48 370.848 1739.55 374.398 1740.64 377.943C1745.52 393.842 1750.9 404.163 1757.09 412.86C1763.47 421.982 1771.76 429.599 1781.39 435.179C1790.92 440.941 1801.59 444.555 1812.66 445.768C1823.25 447.037 1834.88 446.765 1851.17 443.4C1854.8 442.649 1858.43 441.881 1862.05 441.096L1865.01 440.42C1876.11 437.873 1887.18 435.172 1898.21 432.319L1929.31 424.355C1940.35 421.571 1951.35 418.635 1962.31 415.546L1965.22 414.689C1968.58 413.7 1971.9 412.689 1975.87 411.477C1991.79 406.596 2002.1 401.246 2010.79 395.039C2019.91 388.652 2027.52 380.344 2033.09 370.699C2038.86 361.181 2042.48 350.518 2043.7 339.455C2044.96 328.849 2044.7 317.233 2041.33 300.932L2039.02 290.047L2038.35 287.093C2035.8 275.994 2033.1 264.929 2030.25 253.904L2022.27 222.812ZM1950.63 257.728C1953.34 267.712 1954.04 278.134 1952.68 288.389C1951.33 298.644 1947.95 308.528 1942.74 317.466C1937.53 326.403 1930.6 334.217 1922.34 340.452C1914.09 346.687 1904.68 351.219 1894.66 353.786C1884.64 356.352 1874.21 356.902 1863.97 355.402C1853.74 353.902 1843.9 350.383 1835.04 345.049C1826.18 339.715 1818.46 332.673 1812.34 324.332C1806.22 315.991 1801.83 306.517 1799.4 296.461C1794.26 276.404 1797.31 255.129 1807.86 237.315C1818.4 219.501 1835.6 206.607 1855.66 201.47C1875.71 196.334 1896.99 199.375 1914.8 209.924C1932.62 220.474 1945.49 237.672 1950.63 257.728ZM1920.38 265.476C1918.95 259.42 1916.32 253.71 1912.66 248.681C1909 243.651 1904.37 239.402 1899.04 236.181C1893.72 232.961 1887.8 230.834 1881.65 229.924C1875.49 229.014 1869.22 229.34 1863.19 230.883C1857.16 232.426 1851.5 235.155 1846.54 238.91C1841.58 242.665 1837.41 247.372 1834.29 252.754C1831.17 258.137 1829.15 264.087 1828.35 270.259C1827.55 276.43 1827.99 282.699 1829.65 288.698C1832.73 300.732 1840.46 311.048 1851.15 317.378C1861.84 323.708 1874.61 325.533 1886.64 322.451C1898.67 319.369 1908.99 311.632 1915.32 300.944C1921.65 290.255 1923.47 277.49 1920.39 265.457L1920.38 265.476ZM1952.98 172.515C1954.03 177.444 1953.14 182.59 1950.49 186.875C1947.83 191.16 1943.62 194.252 1938.74 195.502C1933.86 196.753 1928.68 196.066 1924.29 193.584C1919.9 191.103 1916.64 187.02 1915.2 182.191C1913.92 177.177 1914.68 171.858 1917.31 167.405C1919.95 162.951 1924.25 159.728 1929.26 158.444C1934.28 157.159 1939.6 157.92 1944.05 160.557C1948.5 163.194 1951.73 167.493 1953.01 172.507L1952.98 172.515Z" fill="#1D1A1A"/>
</g>
<path d="M1676.17 623.783C1684.95 623.349 1693.55 626.423 1700.07 632.329C1706.59 638.234 1710.5 646.488 1710.93 655.274L1722.39 887.166C1722.82 895.952 1719.75 904.551 1713.84 911.07C1707.94 917.59 1699.68 921.497 1690.9 921.931L1459.01 933.389C1450.22 933.823 1441.62 930.749 1435.1 924.844C1428.58 918.938 1424.68 910.684 1424.24 901.898L1412.78 670.006C1412.35 661.22 1415.42 652.621 1421.33 646.102C1427.23 639.582 1435.49 635.676 1444.27 635.242L1676.17 623.783ZM1680.57 880.931L1676.23 793.143C1675.53 778.822 1669.16 765.368 1658.53 755.742C1647.9 746.116 1633.89 741.105 1619.57 741.813C1605.49 742.509 1589.52 751.932 1582.2 765.245L1581.29 746.859L1535.08 749.142L1541.93 887.781L1588.14 885.497L1584.11 803.838C1583.48 791.084 1593.23 780.142 1605.99 779.511C1612.14 779.207 1618.16 781.359 1622.72 785.493C1627.28 789.627 1630.02 795.405 1630.32 801.555L1634.36 883.214L1680.57 880.931ZM1479.96 725.797C1487.34 725.433 1494.28 722.151 1499.24 716.675C1504.2 711.198 1506.78 703.975 1506.42 696.595C1505.66 681.191 1492.61 669.216 1477.21 669.977C1469.78 670.344 1462.81 673.645 1457.82 679.154C1452.83 684.663 1450.23 691.929 1450.6 699.353C1451.36 714.758 1464.56 726.558 1479.96 725.797ZM1511.12 889.303L1504.27 750.665L1458.39 752.932L1465.24 891.57L1511.12 889.303Z" fill="#1D1A1A"/>
<g clip-path="url(#clip1_2_105)">
<path d="M2434.47 353.831C2374.54 392.412 2357.25 472.2 2395.83 532.127C2426.73 580.122 2483.88 600.672 2536.25 587.286C2542.28 584.744 2542.22 580.18 2540.39 577.333C2538.73 574.757 2533.09 566.303 2527.24 557.219C2503.22 579.78 2488.66 572.659 2482.57 567.955C2479.34 565.622 2467.85 559.4 2461.59 559.792C2456.48 560.202 2447.83 558.677 2456.82 552.693C2465.28 547.058 2476.53 551.13 2480.66 553.074C2500.98 563.195 2513.61 548.547 2518.01 541.685C2514.42 534.023 2514.21 527.445 2515.58 522.726C2489.71 535.551 2458.46 542.432 2431.75 500.944C2424.16 489.148 2422.08 476.681 2424.11 464.636C2421.27 462.623 2410.32 453.949 2406.68 435.195C2406.68 435.195 2413.94 426.499 2443.67 427.109C2450.78 419.082 2459.21 411.926 2468.43 405.991C2477.65 400.055 2487.65 395.34 2497.9 392.194C2509.57 364.738 2520.57 361.873 2520.57 361.873C2536.14 372.946 2539.5 386.508 2540.16 389.917C2551.97 393.058 2562.37 399.979 2570.05 411.91C2596.84 453.533 2577.43 479.076 2555.04 497.325C2561.15 498.183 2568.73 502.509 2575.28 512.677C2584.62 527.184 2591.99 538.932 2594.35 542.592C2596.18 545.44 2600.4 547.52 2605.12 542.944C2621.98 521.813 2631.78 495.928 2633.15 468.933C2634.52 441.939 2627.39 415.194 2612.76 392.465C2574.18 332.538 2494.39 315.249 2434.47 353.831Z" fill="#1D1A1A"/>
</g>
<path d="M2260.23 879.536L2261.63 880.161C2274.51 885.98 2339.64 915.699 2355.14 928.323C2359.82 932.153 2363.41 937.144 2365.55 942.797C2367.7 948.45 2368.32 954.567 2367.36 960.537C2366.28 967.208 2363.86 975.598 2360.97 984.078L2360.4 985.78L2358.92 990.013L2358.31 991.701C2352.91 1006.5 2347.03 1019.98 2345.73 1022.92L2345.2 1024.1C2343.83 1027.14 2337.27 1041.41 2329.45 1055.84L2328.59 1057.43L2327.72 1059C2322.92 1067.63 2317.77 1076.02 2313.09 1081.8C2309.28 1086.49 2304.3 1090.11 2298.66 1092.27C2293.01 1094.44 2286.89 1095.08 2280.92 1094.14C2260.53 1090.89 2191.2 1060.27 2181.61 1056L2179.38 1055C2174.53 1052.83 2154.52 1043.76 2133.82 1033.63L2131.2 1032.34L2129.86 1031.67L2127.23 1030.36L2124.6 1029.05C2107.53 1020.48 2091.5 1011.82 2084.78 1006.33C2080.1 1002.51 2076.51 997.518 2074.36 991.867C2072.21 986.216 2071.59 980.1 2072.55 974.131C2073.74 966.81 2076.57 957.363 2079.8 948.038L2080.41 946.334L2081.02 944.647C2085 933.669 2089.34 922.824 2094.03 912.128L2094.89 910.199C2096.43 906.84 2101.78 895.239 2108.38 882.753L2109.22 881.186L2109.63 880.392L2110.48 878.816L2112.65 874.892L2113.54 873.33C2117.94 865.525 2122.59 858.116 2126.84 852.879C2130.65 848.183 2135.63 844.57 2141.27 842.404C2146.92 840.238 2153.04 839.594 2159.01 840.538C2167.56 841.918 2184.71 848.085 2202.47 855.096L2205.19 856.18L2207.93 857.293L2209.3 857.85L2212.03 858.941C2227.18 865.144 2242.24 871.563 2257.2 878.196L2260.23 879.552L2260.23 879.536ZM2211.79 918.304L2177.96 993.892L2260.08 985.305L2211.79 918.304Z" fill="#1D1A1A"/>
<defs>
<clipPath id="clip0_2_105">
<rect width="374.702" height="374.702" fill="white" transform="matrix(-0.248108 -0.968732 -0.968732 0.248108 2112.96 450.994)"/>
</clipPath>
<clipPath id="clip1_2_105">
<rect width="258" height="258" fill="white" transform="translate(2326 423.662) rotate(-32.7738)"/>
</clipPath>
</defs>
</svg>
