<svg width="2702" height="1427" viewBox="0 0 2702 1427" fill="none" xmlns="http://www.w3.org/2000/svg">
<path fill-rule="evenodd" clip-rule="evenodd" d="M2699.57 262.444L2624.8 309.253C2550.03 352.951 2400.48 443.457 2250.6 375.363C2100.72 310.379 1948.63 83.6875 1799.04 152.425C1649.45 221.163 1500.08 391.077 1350.34 391.398C1200.61 391.72 1050.51 222.45 900.576 132.587C748.774 42.7276 599.426 223.419 449.736 245.509C300.047 267.6 150.023 134.199 75.0083 65.944L4.84586e-05 0.798635L2.31177 1076.8L77.1798 1076.64C152.048 1076.47 301.784 1076.15 451.52 1075.83C601.256 1075.51 750.992 1075.19 902.6 1074.86C1052.34 1074.54 1202.07 1074.22 1351.81 1073.9C1501.54 1073.58 1651.28 1073.25 1801.02 1072.93C1950.75 1072.61 2102.36 1072.28 2252.1 1071.96C2401.83 1071.64 2551.57 1071.32 2626.44 1071.16L2701.31 1071L2699.57 262.444Z" fill="#D3DDCE"/>
<g clip-path="url(#clip0_2_105)">
<path d="M2017.27 223.812C2014.49 212.765 2011.55 201.756 2008.46 190.79L2007.6 187.883C2006.61 184.526 2005.6 181.223 2004.39 177.231C1999.51 161.332 1994.16 151.003 1987.96 142.325C1981.56 133.327 1974.2 126.25 1963.64 119.995C1954.11 114.241 1943.45 110.632 1932.39 109.417C1921.79 108.148 1910.15 108.424 1893.86 111.789C1889.79 112.638 1886.4 113.346 1882.98 114.093L1880.02 114.754C1868.92 117.31 1857.86 120.019 1846.84 122.881L1835.55 125.756L1815.74 130.83C1804.69 133.62 1793.69 136.563 1782.72 139.658L1779.81 140.5C1776.45 141.489 1773.15 142.496 1769.16 143.712C1753.26 148.589 1742.94 153.973 1734.26 160.161C1725.13 166.534 1717.5 174.829 1711.92 184.463C1706.17 193.995 1702.56 204.664 1701.35 215.73C1700.08 226.321 1700.35 237.952 1703.72 254.238C1704.57 258.323 1705.27 261.704 1706.02 265.123L1706.68 268.08C1709.24 279.183 1711.95 290.249 1714.81 301.277L1717.69 312.563L1722.76 332.361C1725.55 343.408 1728.49 354.415 1731.58 365.38L1732.43 368.29C1733.48 371.848 1734.55 375.398 1735.64 378.943C1740.52 394.842 1745.9 405.163 1752.09 413.86C1758.47 422.982 1766.76 430.599 1776.39 436.179C1785.92 441.941 1796.59 445.555 1807.66 446.768C1818.25 448.037 1829.88 447.765 1846.17 444.4C1849.8 443.649 1853.43 442.881 1857.05 442.096L1860.01 441.42C1871.11 438.873 1882.18 436.172 1893.21 433.319L1924.31 425.355C1935.35 422.571 1946.35 419.635 1957.31 416.546L1960.22 415.689C1963.58 414.7 1966.9 413.689 1970.87 412.477C1986.79 407.596 1997.1 402.246 2005.79 396.039C2014.91 389.652 2022.52 381.344 2028.09 371.699C2033.86 362.181 2037.48 351.518 2038.7 340.455C2039.96 329.849 2039.7 318.233 2036.33 301.932L2034.02 291.047L2033.35 288.093C2030.8 276.994 2028.1 265.929 2025.25 254.904L2017.27 223.812ZM1945.63 258.728C1948.34 268.712 1949.04 279.134 1947.68 289.389C1946.33 299.644 1942.95 309.528 1937.74 318.466C1932.53 327.403 1925.6 335.217 1917.34 341.452C1909.09 347.687 1899.68 352.219 1889.66 354.786C1879.64 357.352 1869.21 357.902 1858.97 356.402C1848.74 354.902 1838.9 351.383 1830.04 346.049C1821.18 340.715 1813.46 333.673 1807.34 325.332C1801.22 316.991 1796.83 307.517 1794.4 297.461C1789.26 277.404 1792.31 256.129 1802.86 238.315C1813.4 220.501 1830.6 207.607 1850.66 202.47C1870.71 197.334 1891.99 200.375 1909.8 210.924C1927.62 221.474 1940.49 238.672 1945.63 258.728ZM1915.38 266.476C1913.95 260.42 1911.32 254.71 1907.66 249.681C1904 244.651 1899.37 240.402 1894.04 237.181C1888.72 233.961 1882.8 231.834 1876.65 230.924C1870.49 230.014 1864.22 230.34 1858.19 231.883C1852.16 233.426 1846.5 236.155 1841.54 239.91C1836.58 243.665 1832.41 248.372 1829.29 253.754C1826.17 259.137 1824.15 265.087 1823.35 271.259C1822.55 277.43 1822.99 283.699 1824.65 289.698C1827.73 301.732 1835.46 312.048 1846.15 318.378C1856.84 324.708 1869.61 326.533 1881.64 323.451C1893.67 320.369 1903.99 312.632 1910.32 301.944C1916.65 291.255 1918.47 278.49 1915.39 266.457L1915.38 266.476ZM1947.98 173.515C1949.03 178.444 1948.14 183.59 1945.49 187.875C1942.83 192.16 1938.62 195.252 1933.74 196.502C1928.86 197.753 1923.68 197.066 1919.29 194.584C1914.9 192.103 1911.64 188.02 1910.2 183.191C1908.92 178.177 1909.68 172.858 1912.31 168.405C1914.95 163.951 1919.25 160.728 1924.26 159.444C1929.28 158.159 1934.6 158.92 1939.05 161.557C1943.5 164.194 1946.73 168.493 1948.01 173.507L1947.98 173.515Z" fill="#1D1A1A"/>
</g>
<path d="M1676.17 623.783C1684.95 623.349 1693.55 626.423 1700.07 632.329C1706.59 638.234 1710.5 646.488 1710.93 655.274L1722.39 887.166C1722.82 895.952 1719.75 904.551 1713.84 911.07C1707.94 917.59 1699.68 921.497 1690.9 921.931L1459.01 933.389C1450.22 933.823 1441.62 930.749 1435.1 924.844C1428.58 918.938 1424.68 910.684 1424.24 901.898L1412.78 670.006C1412.35 661.22 1415.42 652.621 1421.33 646.102C1427.23 639.582 1435.49 635.676 1444.27 635.242L1676.17 623.783ZM1680.57 880.931L1676.23 793.143C1675.53 778.822 1669.16 765.368 1658.53 755.742C1647.9 746.116 1633.89 741.105 1619.57 741.813C1605.49 742.509 1589.52 751.932 1582.2 765.245L1581.29 746.859L1535.08 749.142L1541.93 887.781L1588.14 885.497L1584.11 803.838C1583.48 791.084 1593.23 780.142 1605.99 779.511C1612.14 779.207 1618.16 781.359 1622.72 785.493C1627.28 789.627 1630.02 795.405 1630.32 801.555L1634.36 883.214L1680.57 880.931ZM1479.96 725.797C1487.34 725.433 1494.28 722.151 1499.24 716.675C1504.2 711.198 1506.78 703.975 1506.42 696.595C1505.66 681.191 1492.61 669.216 1477.21 669.977C1469.78 670.344 1462.81 673.645 1457.82 679.154C1452.83 684.663 1450.23 691.929 1450.6 699.353C1451.36 714.758 1464.56 726.558 1479.96 725.797ZM1511.12 889.303L1504.27 750.665L1458.39 752.932L1465.24 891.57L1511.12 889.303Z" fill="#1D1A1A"/>
<g clip-path="url(#clip1_2_105)">
<path d="M2434.47 356.831C2374.54 395.412 2357.25 475.2 2395.83 535.127C2426.73 583.122 2483.88 603.672 2536.25 590.286C2542.28 587.744 2542.22 583.18 2540.39 580.333C2538.73 577.757 2533.09 569.303 2527.24 560.219C2503.22 582.78 2488.66 575.659 2482.57 570.955C2479.34 568.622 2467.85 562.4 2461.59 562.792C2456.48 563.202 2447.83 561.677 2456.82 555.693C2465.28 550.058 2476.53 554.13 2480.66 556.074C2500.98 566.195 2513.61 551.547 2518.01 544.685C2514.42 537.023 2514.21 530.445 2515.58 525.726C2489.71 538.551 2458.46 545.432 2431.75 503.944C2424.16 492.148 2422.08 479.681 2424.11 467.636C2421.27 465.623 2410.32 456.949 2406.68 438.195C2406.68 438.195 2413.94 429.499 2443.67 430.109C2450.78 422.082 2459.21 414.926 2468.43 408.991C2477.65 403.055 2487.65 398.34 2497.9 395.194C2509.57 367.738 2520.57 364.873 2520.57 364.873C2536.14 375.946 2539.5 389.508 2540.16 392.917C2551.97 396.058 2562.37 402.979 2570.05 414.91C2596.84 456.533 2577.43 482.076 2555.04 500.325C2561.15 501.183 2568.73 505.509 2575.28 515.677C2584.62 530.184 2591.99 541.932 2594.35 545.592C2596.18 548.44 2600.4 550.52 2605.12 545.944C2621.98 524.813 2631.78 498.928 2633.15 471.933C2634.52 444.939 2627.39 418.194 2612.76 395.465C2574.18 335.538 2494.39 318.249 2434.47 356.831Z" fill="#1D1A1A"/>
</g>
<path d="M2260.23 879.536L2261.63 880.161C2274.51 885.98 2339.64 915.699 2355.14 928.323C2359.82 932.153 2363.41 937.144 2365.55 942.797C2367.7 948.45 2368.32 954.567 2367.36 960.537C2366.28 967.208 2363.86 975.598 2360.97 984.078L2360.4 985.78L2358.92 990.013L2358.31 991.701C2352.91 1006.5 2347.03 1019.98 2345.73 1022.92L2345.2 1024.1C2343.83 1027.14 2337.27 1041.41 2329.45 1055.84L2328.59 1057.43L2327.72 1059C2322.92 1067.63 2317.77 1076.02 2313.09 1081.8C2309.28 1086.49 2304.3 1090.11 2298.66 1092.27C2293.01 1094.44 2286.89 1095.08 2280.92 1094.14C2260.53 1090.89 2191.2 1060.27 2181.61 1056L2179.38 1055C2174.53 1052.83 2154.52 1043.76 2133.82 1033.63L2131.2 1032.34L2129.86 1031.67L2127.23 1030.36L2124.6 1029.05C2107.53 1020.48 2091.5 1011.82 2084.78 1006.33C2080.1 1002.51 2076.51 997.518 2074.36 991.867C2072.21 986.216 2071.59 980.1 2072.55 974.131C2073.74 966.81 2076.57 957.363 2079.8 948.038L2080.41 946.334L2081.02 944.647C2085 933.669 2089.34 922.824 2094.03 912.128L2094.89 910.199C2096.43 906.84 2101.78 895.239 2108.38 882.753L2109.22 881.186L2109.63 880.392L2110.48 878.816L2112.65 874.892L2113.54 873.33C2117.94 865.525 2122.59 858.116 2126.84 852.879C2130.65 848.183 2135.63 844.57 2141.27 842.404C2146.92 840.238 2153.04 839.594 2159.01 840.538C2167.56 841.918 2184.71 848.085 2202.47 855.096L2205.19 856.18L2207.93 857.293L2209.3 857.85L2212.03 858.941C2227.18 865.144 2242.24 871.563 2257.2 878.196L2260.23 879.552L2260.23 879.536ZM2211.79 918.304L2177.96 993.892L2260.08 985.305L2211.79 918.304Z" fill="#1D1A1A"/>
<defs>
<clipPath id="clip0_2_105">
<rect width="374.702" height="374.702" fill="white" transform="matrix(-0.248108 -0.968732 -0.968732 0.248108 2107.96 451.994)"/>
</clipPath>
<clipPath id="clip1_2_105">
<rect width="258" height="258" fill="white" transform="translate(2326 426.662) rotate(-32.7738)"/>
</clipPath>
</defs>
</svg>
