<svg width="1312" height="1346" viewBox="0 0 1312 1346" fill="none" xmlns="http://www.w3.org/2000/svg">
<g clip-path="url(#clip0_2_145)">
<path d="M257.629 240.898L259.026 241.523C271.901 247.342 337.034 277.061 352.532 289.685C357.211 293.515 360.803 298.506 362.949 304.159C365.095 309.812 365.719 315.929 364.76 321.899C363.676 328.57 361.258 336.96 358.367 345.44L357.793 347.142L356.313 351.375L355.708 353.063C350.309 367.859 344.424 381.345 343.126 384.286L342.6 385.463C341.222 388.499 334.662 402.776 326.847 417.206L325.984 418.797L325.113 420.365C320.312 428.988 315.162 437.38 310.485 443.158C306.675 447.855 301.697 451.467 296.051 453.633C290.405 455.8 284.288 456.443 278.314 455.5C257.924 452.249 188.598 421.633 179.005 417.358L176.777 416.361C171.929 414.191 151.921 405.123 131.221 394.991L128.596 393.703L127.259 393.03L124.625 391.719L121.992 390.408C104.921 381.845 88.8927 373.183 82.1792 367.692C77.4974 363.868 73.9027 358.88 71.7554 353.229C69.608 347.578 68.9834 341.462 69.9441 335.493C71.1309 328.172 73.9655 318.725 77.1978 309.4L77.8097 307.696L78.4145 306.009C82.3985 295.031 86.7377 284.186 91.4253 273.49L92.289 271.561C93.8302 268.201 99.1732 256.601 105.779 244.115L106.612 242.548L107.024 241.754L107.88 240.178L110.051 236.254L110.938 234.692C115.336 226.887 119.989 219.478 124.235 214.241C128.045 209.545 133.023 205.932 138.669 203.766C144.316 201.6 150.432 200.956 156.406 201.9C164.959 203.28 182.104 209.447 199.87 216.458L202.586 217.541L205.327 218.655L206.697 219.212L209.429 220.303C224.575 226.506 239.632 232.925 254.595 239.558L257.622 240.914L257.629 240.898ZM209.186 279.665L175.353 355.254L257.481 346.667L209.186 279.665Z" fill="#1D1A1A"/>
</g>
<g clip-path="url(#clip1_2_145)">
<path d="M689.016 114.967C697.025 106.864 705.147 98.8735 713.379 90.9966L715.594 88.9279C718.15 86.5384 720.696 84.2041 723.771 81.3831C736.048 70.1652 745.905 63.986 755.656 59.6618C765.738 55.1602 775.669 52.8007 787.945 52.7771C799.073 52.659 810.093 54.9659 820.239 59.5376C830.006 63.8244 839.898 69.9766 852.218 81.1473C855.293 83.9455 857.858 86.281 860.424 88.6606L862.636 90.7319C870.897 98.5699 879.05 106.522 887.091 114.586L895.353 122.795L909.843 137.229C917.942 145.242 925.929 153.368 933.802 161.603L935.882 163.807C938.272 166.364 940.606 168.909 943.427 171.984C954.645 184.261 960.802 194.14 965.137 203.88C969.765 214.007 972.118 225.025 972.033 236.158C972.146 247.29 969.835 258.313 965.261 268.463C960.975 278.23 954.833 288.112 943.663 300.431C940.853 303.517 938.529 306.071 936.149 308.637L934.078 310.849C926.236 319.114 918.281 327.27 910.213 335.315L902.004 343.578L887.581 358.056C879.568 366.155 871.442 374.142 863.207 382.015L861.003 384.095C858.292 386.626 855.566 389.141 852.826 391.64C840.549 402.858 830.669 409.015 820.919 413.361C810.793 417.981 799.78 420.33 788.652 420.246C777.516 420.369 766.488 418.062 756.336 413.485C746.569 409.199 736.687 403.057 724.368 391.887C721.62 389.395 718.885 386.891 716.162 384.373L713.961 382.291C705.688 374.457 697.525 366.508 689.473 358.448L666.731 335.794C658.633 327.788 650.646 319.67 642.772 311.442L640.704 309.227C638.314 306.671 635.969 304.114 633.159 301.05C621.93 288.762 615.762 278.916 611.427 269.154C606.814 259.02 604.48 247.998 604.586 236.865C604.45 225.735 606.746 214.71 611.313 204.56C615.611 194.782 621.741 184.912 632.923 172.581L640.436 164.375L642.519 162.174C650.349 153.905 658.294 145.746 666.351 137.697L689.016 114.967ZM732.994 181.43C725.59 188.655 719.697 197.278 715.655 206.801C711.614 216.323 709.505 226.553 709.452 236.897C709.399 247.241 711.402 257.493 715.345 267.056C719.288 276.619 725.093 285.304 732.421 292.604C739.75 299.904 748.456 305.675 758.034 309.582C767.613 313.488 777.872 315.452 788.216 315.359C798.56 315.266 808.782 313.118 818.288 309.04C827.795 304.962 836.396 299.035 843.592 291.604C858.204 276.936 866.39 257.065 866.35 236.362C866.31 215.658 858.048 195.818 843.38 181.207C828.712 166.595 808.841 158.409 788.137 158.449C767.434 158.489 747.605 166.762 732.994 181.43ZM755.116 203.467C759.425 198.978 764.586 195.393 770.297 192.921C776.008 190.45 782.154 189.141 788.376 189.071C794.599 189.001 800.773 190.172 806.537 192.515C812.302 194.858 817.542 198.326 821.952 202.717C826.361 207.108 829.851 212.334 832.218 218.089C834.586 223.844 835.782 230.013 835.738 236.235C835.695 242.458 834.411 248.61 831.963 254.331C829.515 260.052 825.952 265.228 821.481 269.556C812.714 278.357 800.811 283.314 788.388 283.338C775.966 283.362 764.043 278.45 755.243 269.683C746.442 260.916 741.485 249.013 741.461 236.59C741.437 224.168 746.349 212.246 755.116 203.445L755.116 203.467ZM774.249 106.832C770.838 110.543 768.994 115.43 769.104 120.469C769.215 125.509 771.271 130.31 774.842 133.868C778.413 137.425 783.223 139.463 788.263 139.554C793.303 139.645 798.182 137.782 801.88 134.356C805.533 130.689 807.579 125.722 807.569 120.546C807.559 115.37 805.494 110.41 801.827 106.757C798.16 103.104 793.192 101.058 788.016 101.068C782.84 101.077 777.88 103.143 774.227 106.81L774.249 106.832Z" fill="#1D1A1A"/>
</g>
<path d="M766.569 732.487C775.233 734.008 782.938 738.909 787.989 746.111C793.04 753.313 795.023 762.226 793.502 770.891L753.355 999.569C751.834 1008.23 746.933 1015.94 739.731 1020.99C732.529 1026.04 723.616 1028.02 714.952 1026.5L486.274 986.355C477.609 984.834 469.904 979.933 464.853 972.731C459.802 965.529 457.819 956.616 459.341 947.952L499.487 719.274C501.008 710.609 505.909 702.904 513.111 697.853C520.313 692.802 529.227 690.819 537.891 692.34L766.569 732.487ZM713.954 984.233L729.152 897.662C731.631 883.539 728.399 869.01 720.166 857.271C711.933 845.531 699.374 837.543 685.251 835.064C671.367 832.626 653.705 838.281 643.628 849.645L646.811 831.514L601.239 823.514L577.237 960.231L622.809 968.231L636.946 887.704C639.154 875.127 651.088 866.614 663.666 868.822C669.73 869.887 675.124 873.317 678.66 878.359C682.195 883.4 683.583 889.64 682.519 895.705L668.381 976.232L713.954 984.233ZM552.655 788.549C559.933 789.827 567.42 788.161 573.47 783.919C579.52 779.676 583.636 773.204 584.914 765.926C587.581 750.735 577.51 736.17 562.319 733.503C554.998 732.218 547.466 733.894 541.38 738.162C535.294 742.43 531.153 748.941 529.868 756.262C527.201 771.453 537.464 785.883 552.655 788.549ZM546.855 954.897L570.857 818.18L525.612 810.237L501.61 946.954L546.855 954.897Z" fill="#1D1A1A"/>
<g clip-path="url(#clip2_2_145)">
<path d="M108.465 756.831C48.5381 795.412 31.2493 875.2 69.8308 935.127C100.731 983.122 157.878 1003.67 210.246 990.286C216.28 987.744 216.219 983.18 214.386 980.333C212.727 977.757 207.092 969.303 201.244 960.219C177.222 982.78 162.665 975.659 156.568 970.955C153.34 968.622 141.855 962.4 135.586 962.792C130.481 963.202 121.828 961.677 130.825 955.693C139.279 950.058 150.53 954.13 154.659 956.074C174.982 966.195 187.606 951.547 192.01 944.685C188.42 937.023 188.212 930.445 189.585 925.726C163.706 938.551 132.465 945.432 105.754 903.944C98.1603 892.148 96.0786 879.681 98.105 867.636C95.2746 865.623 84.3207 856.949 80.6845 838.195C80.6845 838.195 87.9354 829.499 117.67 830.109C124.776 822.082 133.21 814.926 142.43 808.991C151.649 803.055 161.654 798.34 171.903 795.194C183.569 767.738 194.573 764.873 194.573 764.873C210.14 775.946 213.502 789.508 214.163 792.917C225.965 796.058 236.366 802.979 244.047 814.91C270.845 856.533 251.427 882.076 229.039 900.325C235.153 901.183 242.733 905.509 249.279 915.677C258.619 930.184 265.99 941.932 268.347 945.592C270.18 948.44 274.396 950.52 279.121 945.944C295.976 924.813 305.778 898.928 307.149 871.933C308.519 844.939 301.389 818.194 286.761 795.465C248.179 735.538 168.392 718.249 108.465 756.831Z" fill="#1D1A1A"/>
</g>
<defs>
<clipPath id="clip0_2_145">
<rect width="275.019" height="275.019" fill="white" transform="translate(145.356 153) rotate(24.113)"/>
</clipPath>
<clipPath id="clip1_2_145">
<rect width="374.702" height="374.702" fill="white" transform="translate(495 265.463) rotate(-45.1101)"/>
</clipPath>
<clipPath id="clip2_2_145">
<rect width="258" height="258" fill="white" transform="translate(0 826.662) rotate(-32.7738)"/>
</clipPath>
</defs>
</svg>
