<svg width="1162" height="1059" viewBox="0 0 1162 1059" fill="none" xmlns="http://www.w3.org/2000/svg">
<g clip-path="url(#clip0_13_101)">
<path d="M513.026 133.15L514.107 134.232C524.062 144.259 574.319 195.246 584.298 212.566C587.304 217.813 588.881 223.756 588.87 229.803C588.859 235.85 587.262 241.788 584.237 247.023C580.846 252.87 575.596 259.846 569.871 266.738L568.728 268.123L565.836 271.551L564.669 272.912C554.35 284.811 544.043 295.312 541.782 297.597L540.871 298.509C538.501 300.855 527.282 311.854 514.837 322.55L513.463 323.729L512.09 324.884C504.53 331.228 496.727 337.232 490.297 340.964C485.063 343.993 479.124 345.594 473.077 345.604C467.029 345.615 461.085 344.035 455.84 341.024C437.949 330.718 384.093 277.397 376.655 269.983L374.929 268.257C371.173 264.501 355.713 248.895 339.985 232.049L337.992 229.91L336.983 228.804L334.99 226.641L332.997 224.477C320.101 210.391 308.214 196.583 303.899 189.06C300.889 183.818 299.309 177.876 299.317 171.831C299.326 165.785 300.923 159.848 303.948 154.615C307.667 148.197 313.684 140.382 320.028 132.822L321.207 131.449L322.374 130.087C330.01 121.252 337.93 112.666 346.123 104.345L347.618 102.85C350.256 100.261 359.384 91.3275 370.006 82.0173L371.343 80.8505L372.012 80.255L373.373 79.0882L376.801 76.1954L378.186 75.0529C385.078 69.3283 392.066 64.0655 397.9 60.6866C403.135 57.6571 409.073 56.0567 415.121 56.0461C421.169 56.0354 427.113 57.6148 432.358 60.6258C439.857 64.9649 453.676 76.8396 467.775 89.7231L469.927 91.7043L472.09 93.7219L473.172 94.7307L475.335 96.724C487.275 107.919 499.053 119.284 510.668 130.817L513.013 133.162L513.026 133.15ZM453.944 152.099L395.385 210.658L475.177 231.916L453.944 152.099Z" fill="#1D1A1A"/>
</g>
<g clip-path="url(#clip1_13_101)">
<path d="M899.323 103.869C908.397 96.9791 917.565 90.2152 926.827 83.5796L929.311 81.8445C932.18 79.8399 935.03 77.8885 938.472 75.5299C952.21 66.1579 962.841 61.4327 973.105 58.5286C983.721 55.4958 993.886 54.5623 1006.04 56.2724C1017.08 57.7268 1027.66 61.5667 1037.06 67.5253C1046.12 73.1483 1055.05 80.6358 1065.67 93.4342C1068.31 96.6384 1070.52 99.3128 1072.73 102.031L1074.63 104.394C1081.7 113.32 1088.65 122.344 1095.47 131.462L1102.49 140.755L1114.79 157.091C1121.68 166.168 1128.44 175.34 1135.07 184.604L1136.82 187.08C1138.82 189.948 1140.77 192.798 1143.13 196.24C1152.51 209.978 1157.21 220.628 1160.12 230.882C1163.27 241.561 1164.05 252.801 1162.39 263.811C1160.93 274.847 1157.09 285.433 1151.13 294.835C1145.5 303.9 1138.03 312.815 1125.23 323.434C1122.01 326.092 1119.35 328.292 1116.63 330.496L1114.27 332.394C1105.34 339.469 1096.31 346.42 1087.19 353.245L1077.9 360.265L1061.57 372.562C1052.5 379.448 1043.32 386.208 1034.06 392.839L1031.58 394.587C1028.54 396.71 1025.49 398.815 1022.42 400.902C1008.69 410.273 998.035 414.974 987.768 417.9C977.092 421.043 965.858 421.814 954.853 420.159C943.811 418.709 933.22 414.867 923.816 408.903C914.751 403.28 905.836 395.805 895.217 383.007C892.849 380.152 890.495 377.287 888.154 374.41L886.27 372.038C879.186 363.114 872.227 354.092 865.394 344.976L846.079 319.337C839.192 310.268 832.432 301.103 825.799 291.846L824.064 289.361C822.059 286.493 820.099 283.631 817.749 280.201C808.368 266.45 803.652 255.832 800.739 245.555C797.604 234.872 796.849 223.631 798.526 212.624C799.964 201.587 803.793 190.996 809.748 181.593C815.383 172.519 822.846 163.614 835.657 152.985L844.254 145.922L846.626 144.038C855.546 136.958 864.563 130.002 873.675 123.171L899.323 103.869ZM933.475 175.877C925.126 181.983 918.073 189.689 912.728 198.545C907.382 207.401 903.85 217.231 902.337 227.464C900.823 237.697 901.359 248.128 903.912 258.153C906.465 268.177 910.985 277.594 917.21 285.856C923.434 294.118 931.238 301.061 940.169 306.28C949.1 311.5 958.979 314.893 969.232 316.261C979.485 317.63 989.908 316.947 999.896 314.252C1009.88 311.557 1019.23 306.905 1027.41 300.564C1043.94 288.107 1054.85 269.59 1057.74 249.089C1060.62 228.587 1055.24 207.779 1042.79 191.243C1030.33 174.707 1011.81 163.797 991.311 160.912C970.81 158.028 950.011 163.419 933.475 175.877ZM952.263 200.817C957.164 196.981 962.779 194.161 968.782 192.52C974.785 190.88 981.054 190.452 987.224 191.261C993.394 192.071 999.34 194.102 1004.72 197.235C1010.09 200.369 1014.79 204.543 1018.54 209.512C1022.28 214.482 1025 220.148 1026.53 226.179C1028.06 232.211 1028.37 238.487 1027.45 244.641C1026.53 250.795 1024.39 256.704 1021.16 262.022C1017.93 267.34 1013.67 271.961 1008.63 275.615C998.71 283.089 986.226 286.316 973.924 284.586C961.623 282.855 950.514 276.309 943.039 266.387C935.565 256.466 932.338 243.981 934.068 231.68C935.799 219.379 942.345 208.269 952.267 200.795L952.263 200.817ZM984.851 107.852C980.95 111.044 978.434 115.621 977.832 120.626C977.23 125.63 978.587 130.674 981.62 134.7C984.654 138.726 989.127 141.423 994.103 142.224C999.08 143.026 1004.17 141.872 1008.32 139.002C1012.45 135.888 1015.18 131.258 1015.9 126.133C1016.62 121.008 1015.28 115.806 1012.16 111.672C1009.05 107.538 1004.42 104.81 999.294 104.089C994.168 103.368 988.966 104.713 984.832 107.827L984.851 107.852Z" fill="#1D1A1A"/>
</g>
<g clip-path="url(#clip2_13_101)">
<path d="M814.44 724.532C821.708 729.488 826.709 737.128 828.343 745.772C829.978 754.415 828.112 763.354 823.155 770.622L692.346 962.44C687.39 969.708 679.75 974.709 671.106 976.343C662.463 977.978 653.524 976.112 646.256 971.156L454.438 840.346C447.17 835.39 442.169 827.75 440.535 819.106C438.9 810.463 440.766 801.524 445.722 794.256L576.532 602.438C581.488 595.17 589.128 590.169 597.772 588.535C606.415 586.9 615.354 588.766 622.622 593.722L814.44 724.532ZM662.765 932.23L712.285 859.614C720.364 847.767 723.405 833.197 720.741 819.108C718.077 805.019 709.925 792.566 698.079 784.487C686.433 776.545 668.01 774.42 654.145 780.622L664.517 765.414L626.29 739.345L548.085 854.025L586.311 880.094L632.375 812.546C639.569 801.996 653.951 799.157 664.501 806.352C669.588 809.821 673.089 815.169 674.233 821.22C675.377 827.27 674.071 833.527 670.601 838.615L624.538 906.162L662.765 932.23ZM596.43 687.468C602.535 691.631 610.043 693.198 617.304 691.825C624.564 690.452 630.982 686.251 635.145 680.147C643.835 667.404 640.66 649.984 627.918 641.294C621.777 637.106 614.223 635.529 606.92 636.911C599.616 638.292 593.16 642.518 588.972 648.659C580.282 661.401 583.688 678.778 596.43 687.468ZM522.6 836.646L600.805 721.966L562.853 696.085L484.647 810.765L522.6 836.646Z" fill="#1D1A1A"/>
</g>
<g clip-path="url(#clip3_13_101)">
<path d="M100.229 632.211C44.8525 677.079 36.3417 758.274 81.2106 813.65C117.146 858.001 176.189 872.215 226.791 853.215C232.513 850.031 231.956 845.502 229.824 842.871C227.895 840.49 221.375 832.699 214.573 824.304C193.147 849.344 177.902 843.848 171.329 839.835C167.867 837.867 155.773 832.93 149.584 834.001C144.554 834.964 135.786 834.389 144.079 827.463C151.87 820.942 163.498 823.766 167.813 825.25C189.117 833.101 200.073 817.167 203.705 809.866C199.303 802.641 198.381 796.124 199.232 791.283C174.901 806.847 144.594 817.084 113.531 778.746C104.699 767.846 101.274 755.679 101.979 743.486C98.9462 741.792 87.1141 734.361 81.4602 716.113C81.4602 716.113 87.7226 706.68 117.347 704.053C123.538 695.301 131.144 687.271 139.664 680.368C148.183 673.465 157.616 667.69 167.462 663.448C176.073 634.887 186.701 630.842 186.701 630.842C203.38 640.157 208.196 653.272 209.224 656.59C221.298 658.429 232.389 664.178 241.323 675.203C272.487 713.666 255.961 741.168 235.691 761.743C241.862 761.931 249.867 765.407 257.48 774.804C268.342 788.209 276.947 799.086 279.688 802.468C281.82 805.099 286.237 806.709 290.436 801.646C304.893 778.808 311.823 752.011 310.25 725.027C308.677 698.043 298.681 672.233 281.668 651.229C236.8 595.852 155.605 587.342 100.229 632.211Z" fill="#1D1A1A"/>
</g>
<defs>
<clipPath id="clip0_13_101">
<rect width="275.019" height="275.019" fill="white" transform="translate(439.468 11) rotate(45)"/>
</clipPath>
<clipPath id="clip1_13_101">
<rect width="374.702" height="374.702" fill="white" transform="translate(686 225.461) rotate(-36.9924)"/>
</clipPath>
<clipPath id="clip2_13_101">
<rect width="398.015" height="398.015" fill="white" transform="translate(582.146 505.901) rotate(34.2918)"/>
</clipPath>
<clipPath id="clip3_13_101">
<rect width="258" height="258" fill="white" transform="translate(0 713.421) rotate(-39.0161)"/>
</clipPath>
</defs>
</svg>
