<svg width="2702" height="1427" viewBox="0 0 2702 1427" fill="none" xmlns="http://www.w3.org/2000/svg">
<path fill-rule="evenodd" clip-rule="evenodd" d="M2699.57 262.444L2624.8 309.253C2550.03 352.951 2400.48 443.457 2250.6 375.363C2100.72 310.379 1948.63 83.6875 1799.04 152.425C1649.45 221.163 1500.08 391.077 1350.34 391.398C1200.61 391.72 1050.51 222.45 900.576 132.587C748.774 42.7276 599.426 223.419 449.736 245.509C300.047 267.6 150.023 134.199 75.0083 65.944L4.84586e-05 0.798635L2.31177 1076.8L77.1798 1076.64C152.048 1076.47 301.784 1076.15 451.52 1075.83C601.256 1075.51 750.992 1075.19 902.6 1074.86C1052.34 1074.54 1202.07 1074.22 1351.81 1073.9C1501.54 1073.58 1651.28 1073.25 1801.02 1072.93C1950.75 1072.61 2102.36 1072.28 2252.1 1071.96C2401.83 1071.64 2551.57 1071.32 2626.44 1071.16L2701.31 1071L2699.57 262.444Z" fill="#1D1A1A"/>
<g clip-path="url(#clip0_57_3)">
<path d="M2017.27 223.812C2014.49 212.765 2011.55 201.756 2008.46 190.79L2007.6 187.883C2006.61 184.526 2005.6 181.223 2004.39 177.231C1999.51 161.332 1994.16 151.003 1987.96 142.325C1981.56 133.327 1974.2 126.25 1963.64 119.995C1954.11 114.241 1943.45 110.632 1932.39 109.417C1921.79 108.148 1910.15 108.424 1893.86 111.789C1889.79 112.638 1886.4 113.346 1882.98 114.093L1880.02 114.754C1868.92 117.31 1857.86 120.019 1846.84 122.881L1835.55 125.756L1815.74 130.83C1804.69 133.62 1793.69 136.563 1782.72 139.658L1779.81 140.5C1776.45 141.489 1773.15 142.496 1769.16 143.712C1753.26 148.589 1742.94 153.973 1734.26 160.161C1725.13 166.534 1717.5 174.829 1711.92 184.463C1706.17 193.995 1702.56 204.664 1701.35 215.73C1700.08 226.321 1700.35 237.952 1703.72 254.238C1704.57 258.323 1705.27 261.704 1706.02 265.123L1706.68 268.08C1709.24 279.183 1711.95 290.249 1714.81 301.277L1717.69 312.563L1722.76 332.361C1725.55 343.408 1728.49 354.415 1731.58 365.38L1732.43 368.29C1733.48 371.848 1734.55 375.398 1735.64 378.943C1740.52 394.842 1745.9 405.163 1752.09 413.86C1758.47 422.982 1766.76 430.599 1776.39 436.179C1785.92 441.941 1796.59 445.555 1807.66 446.768C1818.25 448.037 1829.88 447.765 1846.17 444.4C1849.8 443.649 1853.43 442.881 1857.05 442.096L1860.01 441.42C1871.11 438.873 1882.18 436.172 1893.21 433.319L1924.31 425.355C1935.35 422.571 1946.35 419.635 1957.31 416.546L1960.22 415.689C1963.58 414.7 1966.9 413.689 1970.87 412.477C1986.79 407.596 1997.1 402.246 2005.79 396.039C2014.91 389.652 2022.52 381.344 2028.09 371.699C2033.86 362.181 2037.48 351.518 2038.7 340.455C2039.96 329.849 2039.7 318.233 2036.33 301.932L2034.02 291.047L2033.35 288.093C2030.8 276.994 2028.1 265.929 2025.25 254.904L2017.27 223.812ZM1945.63 258.728C1948.34 268.712 1949.04 279.134 1947.68 289.389C1946.33 299.644 1942.95 309.528 1937.74 318.466C1932.53 327.403 1925.6 335.217 1917.34 341.452C1909.09 347.687 1899.68 352.219 1889.66 354.786C1879.64 357.352 1869.21 357.902 1858.97 356.402C1848.74 354.902 1838.9 351.383 1830.04 346.049C1821.18 340.715 1813.46 333.673 1807.34 325.332C1801.22 316.991 1796.83 307.517 1794.4 297.461C1789.26 277.404 1792.31 256.129 1802.86 238.315C1813.4 220.501 1830.6 207.607 1850.66 202.47C1870.71 197.334 1891.99 200.375 1909.8 210.924C1927.62 221.474 1940.49 238.672 1945.63 258.728ZM1915.38 266.476C1913.95 260.42 1911.32 254.71 1907.66 249.681C1904 244.651 1899.37 240.402 1894.04 237.181C1888.72 233.961 1882.8 231.834 1876.65 230.924C1870.49 230.014 1864.22 230.34 1858.19 231.883C1852.16 233.426 1846.5 236.155 1841.54 239.91C1836.58 243.665 1832.41 248.372 1829.29 253.754C1826.17 259.137 1824.15 265.087 1823.35 271.259C1822.55 277.43 1822.99 283.699 1824.65 289.698C1827.73 301.732 1835.46 312.048 1846.15 318.378C1856.84 324.708 1869.61 326.533 1881.64 323.451C1893.67 320.369 1903.99 312.632 1910.32 301.944C1916.65 291.255 1918.47 278.49 1915.39 266.457L1915.38 266.476ZM1947.98 173.515C1949.03 178.444 1948.14 183.59 1945.49 187.875C1942.83 192.16 1938.62 195.252 1933.74 196.502C1928.86 197.753 1923.68 197.066 1919.29 194.584C1914.9 192.103 1911.64 188.02 1910.2 183.191C1908.92 178.177 1909.68 172.858 1912.31 168.405C1914.95 163.951 1919.25 160.728 1924.26 159.444C1929.28 158.159 1934.6 158.92 1939.05 161.557C1943.5 164.194 1946.73 168.493 1948.01 173.507L1947.98 173.515Z" fill="#D3DDCE"/>
</g>
<path d="M1676.17 623.783C1684.95 623.349 1693.55 626.423 1700.07 632.329C1706.59 638.234 1710.5 646.488 1710.93 655.274L1722.39 887.166C1722.82 895.952 1719.75 904.551 1713.84 911.07C1707.94 917.59 1699.68 921.497 1690.9 921.931L1459.01 933.389C1450.22 933.823 1441.62 930.749 1435.1 924.844C1428.58 918.938 1424.68 910.684 1424.24 901.898L1412.78 670.006C1412.35 661.22 1415.42 652.621 1421.33 646.102C1427.23 639.582 1435.49 635.676 1444.27 635.242L1676.17 623.783ZM1680.57 880.931L1676.23 793.143C1675.53 778.822 1669.16 765.368 1658.53 755.742C1647.9 746.116 1633.89 741.105 1619.57 741.813C1605.49 742.509 1589.52 751.932 1582.2 765.245L1581.29 746.859L1535.08 749.142L1541.93 887.781L1588.14 885.497L1584.11 803.838C1583.48 791.084 1593.23 780.142 1605.99 779.511C1612.14 779.207 1618.16 781.359 1622.72 785.493C1627.28 789.627 1630.02 795.405 1630.32 801.555L1634.36 883.214L1680.57 880.931ZM1479.96 725.797C1487.34 725.433 1494.28 722.151 1499.24 716.675C1504.2 711.198 1506.78 703.975 1506.42 696.595C1505.66 681.191 1492.61 669.216 1477.21 669.977C1469.78 670.344 1462.81 673.645 1457.82 679.154C1452.83 684.663 1450.23 691.929 1450.6 699.353C1451.36 714.758 1464.56 726.558 1479.96 725.797ZM1511.12 889.303L1504.27 750.665L1458.39 752.932L1465.24 891.57L1511.12 889.303Z" fill="#D3DDCE"/>
<g clip-path="url(#clip1_57_3)">
<path d="M2092.47 844.831C2032.54 883.412 2015.25 963.2 2053.83 1023.13C2084.73 1071.12 2141.88 1091.67 2194.25 1078.29C2200.28 1075.74 2200.22 1071.18 2198.39 1068.33C2196.73 1065.76 2191.09 1057.3 2185.24 1048.22C2161.22 1070.78 2146.66 1063.66 2140.57 1058.95C2137.34 1056.62 2125.85 1050.4 2119.59 1050.79C2114.48 1051.2 2105.83 1049.68 2114.82 1043.69C2123.28 1038.06 2134.53 1042.13 2138.66 1044.07C2158.98 1054.19 2171.61 1039.55 2176.01 1032.68C2172.42 1025.02 2172.21 1018.44 2173.58 1013.73C2147.71 1026.55 2116.46 1033.43 2089.75 991.944C2082.16 980.148 2080.08 967.681 2082.11 955.636C2079.27 953.623 2068.32 944.949 2064.68 926.195C2064.68 926.195 2071.94 917.499 2101.67 918.109C2108.78 910.082 2117.21 902.926 2126.43 896.991C2135.65 891.055 2145.65 886.34 2155.9 883.194C2167.57 855.738 2178.57 852.873 2178.57 852.873C2194.14 863.946 2197.5 877.508 2198.16 880.917C2209.97 884.058 2220.37 890.979 2228.05 902.91C2254.84 944.533 2235.43 970.076 2213.04 988.325C2219.15 989.183 2226.73 993.509 2233.28 1003.68C2242.62 1018.18 2249.99 1029.93 2252.35 1033.59C2254.18 1036.44 2258.4 1038.52 2263.12 1033.94C2279.98 1012.81 2289.78 986.928 2291.15 959.933C2292.52 932.939 2285.39 906.194 2270.76 883.465C2232.18 823.538 2152.39 806.249 2092.47 844.831Z" fill="#D3DDCE"/>
</g>
<path d="M2441.14 373.468L2442.65 373.742C2456.54 376.325 2526.88 389.661 2544.94 398.227C2550.4 400.832 2555.08 404.823 2558.51 409.801C2561.94 414.78 2564 420.572 2564.5 426.599C2565.03 433.336 2564.68 442.061 2563.9 450.985L2563.75 452.774L2563.32 457.239L2563.13 459.022C2561.42 474.679 2558.91 489.179 2558.36 492.344L2558.12 493.612C2557.51 496.89 2554.54 512.318 2550.39 528.195L2549.93 529.946L2549.46 531.677C2546.85 541.196 2543.85 550.573 2540.69 557.3C2538.11 562.769 2534.13 567.464 2529.17 570.914C2524.2 574.363 2518.41 576.446 2512.39 576.954C2491.81 578.657 2417.18 565.449 2406.85 563.583L2404.45 563.146C2399.22 562.194 2377.63 558.156 2355.11 553.251L2352.25 552.626L2350.79 552.29L2347.92 551.645L2345.05 551C2326.43 546.752 2308.8 542.161 2300.97 538.428C2295.52 535.83 2290.84 531.843 2287.4 526.867C2283.97 521.89 2281.91 516.099 2281.42 510.074C2280.82 502.68 2281.33 492.83 2282.24 483.003L2282.43 481.203L2282.62 479.42C2283.87 467.809 2285.5 456.242 2287.5 444.738L2287.88 442.658C2288.57 439.028 2291 426.488 2294.44 412.788L2294.87 411.068L2295.08 410.198L2295.54 408.464L2296.71 404.135L2297.2 402.407C2299.61 393.778 2302.37 385.474 2305.24 379.376C2307.82 373.906 2311.79 369.212 2316.76 365.762C2321.73 362.312 2327.52 360.229 2333.54 359.722C2342.18 359.023 2360.3 360.926 2379.22 363.5L2382.12 363.905L2385.05 364.333L2386.51 364.548L2389.42 364.956C2405.61 367.369 2421.77 370.015 2437.88 372.891L2441.14 373.485L2441.14 373.468ZM2403.34 422.665L2388.5 504.14L2466.21 476.224L2403.34 422.665Z" fill="#D3DDCE"/>
<defs>
<clipPath id="clip0_57_3">
<rect width="374.702" height="374.702" fill="white" transform="matrix(-0.248108 -0.968732 -0.968732 0.248108 2107.96 451.994)"/>
</clipPath>
<clipPath id="clip1_57_3">
<rect width="258" height="258" fill="white" transform="translate(1984 914.662) rotate(-32.7738)"/>
</clipPath>
</defs>
</svg>
