<svg width="51" height="51" viewBox="0 0 51 51" fill="#D3DDCE" xmlns="http://www.w3.org/2000/svg">
<path d="M27.9984 0.237451C29.8228 0.23045 31.6471 0.248786 33.4709 0.292451L33.9559 0.309951C34.5159 0.329951 35.0684 0.354951 35.7359 0.384951C38.3959 0.509951 40.2109 0.929951 41.8034 1.54745C43.4534 2.18245 44.8434 3.04245 46.2334 4.43245C47.5044 5.68147 48.488 7.19232 49.1159 8.85995C49.7334 10.4525 50.1534 12.2699 50.2784 14.9299C50.3084 15.5949 50.3334 16.15 50.3534 16.71L50.3684 17.195C50.4129 19.0179 50.432 20.8414 50.4259 22.6649L50.4284 24.53V27.8049C50.4346 29.6293 50.4154 31.4536 50.3709 33.2774L50.3559 33.7624C50.3359 34.3224 50.3109 34.8749 50.2809 35.5424C50.1559 38.2024 49.7309 40.0174 49.1159 41.6099C48.4901 43.2794 47.5062 44.7914 46.2334 46.0399C44.9833 47.3107 43.4717 48.2943 41.8034 48.9224C40.2109 49.5399 38.3959 49.96 35.7359 50.085C35.0684 50.115 34.5159 50.1399 33.9559 50.1599L33.4709 50.1749C31.6471 50.2194 29.8228 50.2386 27.9984 50.2324L26.1334 50.2349H22.8609C21.0366 50.2411 19.2123 50.2219 17.3884 50.1774L16.9034 50.1624C16.31 50.1409 15.7166 50.1159 15.1234 50.0874C12.4634 49.9624 10.6484 49.5374 9.05344 48.9224C7.38515 48.2958 5.87404 47.312 4.62594 46.0399C3.35356 44.7907 2.369 43.2788 1.74094 41.6099C1.12344 40.0174 0.703444 38.2024 0.578444 35.5424C0.550602 34.9492 0.525601 34.3559 0.503444 33.7624L0.490945 33.2774C0.444854 31.4537 0.424018 29.6293 0.428444 27.8049V22.6649C0.421467 20.8415 0.439802 19.0179 0.483445 17.195L0.500945 16.71C0.520945 16.15 0.545944 15.5949 0.575944 14.9299C0.700944 12.2674 1.12094 10.455 1.73844 8.85995C2.36688 7.1915 3.35335 5.68106 4.62844 4.43495C5.87568 3.16183 7.38585 2.17638 9.05344 1.54745C10.6484 0.929951 12.4609 0.509951 15.1234 0.384951L16.9034 0.309951L17.3884 0.297451C19.2114 0.251383 21.0349 0.230548 22.8584 0.234951L27.9984 0.237451ZM25.4284 12.7374C23.7722 12.714 22.1278 13.02 20.5909 13.6376C19.0539 14.2552 17.6551 15.1721 16.4756 16.3351C15.2961 17.498 14.3594 18.8838 13.7202 20.4119C13.0809 21.9399 12.7517 23.5798 12.7517 25.2362C12.7517 26.8926 13.0809 28.5325 13.7202 30.0605C14.3594 31.5886 15.2961 32.9744 16.4756 34.1373C17.6551 35.3003 19.0539 36.2172 20.5909 36.8348C22.1278 37.4524 23.7722 37.7584 25.4284 37.7349C28.7436 37.7349 31.9231 36.418 34.2673 34.0738C36.6115 31.7296 37.9284 28.5502 37.9284 25.2349C37.9284 21.9197 36.6115 18.7403 34.2673 16.3961C31.9231 14.0519 28.7436 12.7374 25.4284 12.7374ZM25.4284 17.7375C26.4247 17.7191 27.4146 17.8994 28.3404 18.268C29.2662 18.6365 30.1093 19.1858 30.8204 19.8838C31.5315 20.5818 32.0964 21.4145 32.482 22.3333C32.8677 23.2521 33.0664 24.2385 33.0666 25.2349C33.0668 26.2314 32.8684 27.2178 32.483 28.1367C32.0977 29.0556 31.533 29.8885 30.8222 30.5868C30.1113 31.285 29.2684 31.8346 28.3428 32.2035C27.4171 32.5723 26.4272 32.753 25.4309 32.7349C23.4418 32.7349 21.5342 31.9448 20.1276 30.5383C18.7211 29.1317 17.9309 27.2241 17.9309 25.2349C17.9309 23.2458 18.7211 21.3382 20.1276 19.9316C21.5342 18.5251 23.4418 17.7349 25.4309 17.7349L25.4284 17.7375ZM38.5534 8.98745C37.7469 9.01973 36.9842 9.36283 36.425 9.94488C35.8657 10.5269 35.5534 11.3028 35.5534 12.11C35.5534 12.9171 35.8657 13.693 36.425 14.275C36.9842 14.8571 37.7469 15.2002 38.5534 15.2324C39.3822 15.2324 40.1771 14.9032 40.7632 14.3172C41.3492 13.7311 41.6784 12.9363 41.6784 12.1074C41.6784 11.2786 41.3492 10.4838 40.7632 9.89774C40.1771 9.31169 39.3822 8.98245 38.5534 8.98245V8.98745Z" fill="#D3DDCE"/>
</svg>
