<svg width="60" height="61" viewBox="0 0 60 61" fill="#D3DDCE" xmlns="http://www.w3.org/2000/svg">
<path d="M53.3333 0.234863C55.1014 0.234863 56.7971 0.937242 58.0474 2.18748C59.2976 3.43773 60 5.13342 60 6.90153V53.5682C60 55.3363 59.2976 57.032 58.0474 58.2822C56.7971 59.5325 55.1014 60.2349 53.3333 60.2349H6.66667C4.89856 60.2349 3.20286 59.5325 1.95262 58.2822C0.702379 57.032 0 55.3363 0 53.5682V6.90153C0 5.13342 0.702379 3.43773 1.95262 2.18748C3.20286 0.937242 4.89856 0.234863 6.66667 0.234863H53.3333ZM51.6667 51.9015V34.2349C51.6667 31.3528 50.5218 28.5889 48.4839 26.551C46.446 24.5131 43.682 23.3682 40.8 23.3682C37.9667 23.3682 34.6667 25.1015 33.0667 27.7015V24.0015H23.7667V51.9015H33.0667V35.4682C33.0667 32.9015 35.1333 30.8015 37.7 30.8015C38.9377 30.8015 40.1247 31.2932 40.9998 32.1684C41.875 33.0435 42.3667 34.2305 42.3667 35.4682V51.9015H51.6667ZM12.9333 18.7682C14.4185 18.7682 15.8429 18.1782 16.8931 17.128C17.9433 16.0778 18.5333 14.6534 18.5333 13.1682C18.5333 10.0682 16.0333 7.53486 12.9333 7.53486C11.4393 7.53486 10.0064 8.12837 8.94996 9.18483C7.89351 10.2413 7.3 11.6741 7.3 13.1682C7.3 16.2682 9.83333 18.7682 12.9333 18.7682ZM17.5667 51.9015V24.0015H8.33333V51.9015H17.5667Z" fill="#D3DDCE"/>
</svg>
