<svg width="63" height="45" viewBox="0 0 63 45" fill="#D3DDCE" xmlns="http://www.w3.org/2000/svg">
<path d="M31.7008 0.105957H32.0512C35.2879 0.11777 51.6876 0.235895 56.1094 1.42502C57.4461 1.78793 58.6642 2.49532 59.6419 3.47649C60.6197 4.45766 61.3227 5.67824 61.6809 7.01627C62.0786 8.51252 62.3582 10.4931 62.5472 12.5366L62.5866 12.9461L62.6732 13.9699L62.7047 14.3794C62.9606 17.9783 62.9921 21.3488 62.9961 22.0851V22.3804C62.9921 23.1443 62.9567 26.7431 62.6732 30.4916L62.6417 30.9051L62.6062 31.3146C62.4094 33.5668 62.118 35.8033 61.6809 37.4492C61.3238 38.7878 60.6211 40.0089 59.6432 40.9903C58.6653 41.9716 57.4467 42.6786 56.1094 43.0405C51.5419 44.269 34.1814 44.3556 31.7756 44.3595H31.2165C29.9998 44.3595 24.9677 44.3359 19.6914 44.1548L19.0221 44.1311L18.6795 44.1154L18.0062 44.0878L17.3329 44.0603C12.9622 43.8673 8.80031 43.5563 6.88275 43.0365C5.54593 42.675 4.32757 41.9686 3.34973 40.988C2.37189 40.0074 1.6689 38.787 1.31119 37.4492C0.874125 35.8073 0.58275 33.5668 0.385875 31.3146L0.354375 30.9011L0.322875 30.4916C0.12855 27.8236 0.0208682 25.1499 0 22.4749L0 21.9906C0.007875 21.144 0.039375 18.2185 0.252 14.9897L0.279562 14.5841L0.291375 14.3794L0.322875 13.9699L0.4095 12.9461L0.448875 12.5366C0.637875 10.4931 0.917437 8.50858 1.31512 7.01627C1.67223 5.67771 2.37495 4.45654 3.35283 3.47521C4.33071 2.49387 5.54939 1.78685 6.88669 1.42502C8.80425 0.913145 12.9662 0.598144 17.3368 0.401269L18.0062 0.373707L18.6834 0.350083L19.0221 0.33827L19.6954 0.310708C23.4427 0.19012 27.1916 0.123175 30.9409 0.109895H31.7008V0.105957ZM25.2 12.7453V31.7162L41.5682 22.2347L25.2 12.7453Z" fill="#D3DDCE"/>
</svg>
