<svg width="71" height="70" viewBox="0 0 71 70" fill="#D3DDCE" xmlns="http://www.w3.org/2000/svg">
<path d="M35.9265 0.918213C16.589 0.918213 0.926514 16.5807 0.926514 35.9182C0.926514 51.4057 10.9453 64.487 24.8578 69.1245C26.6078 69.4307 27.264 68.3807 27.264 67.462C27.264 66.6307 27.2203 63.8745 27.2203 60.9432C18.4265 62.562 16.1515 58.7995 15.4515 56.8307C15.0578 55.8245 13.3515 52.7182 11.864 51.887C10.639 51.2307 8.88901 49.612 11.8203 49.5682C14.5765 49.5245 16.5453 52.1057 17.2015 53.1557C20.3515 58.4495 25.3828 56.962 27.3953 56.0432C27.7015 53.7682 28.6203 52.237 29.6265 51.362C21.839 50.487 13.7015 47.4682 13.7015 34.0807C13.7015 30.2745 15.0578 27.1245 17.289 24.6745C16.939 23.7995 15.714 20.212 17.639 15.3995C17.639 15.3995 20.5703 14.4807 27.264 18.987C30.064 18.1995 33.039 17.8057 36.014 17.8057C38.989 17.8057 41.964 18.1995 44.764 18.987C51.4578 14.437 54.389 15.3995 54.389 15.3995C56.314 20.212 55.089 23.7995 54.739 24.6745C56.9703 27.1245 58.3265 30.2307 58.3265 34.0807C58.3265 47.512 50.1453 50.487 42.3578 51.362C43.6265 52.4557 44.7203 54.5557 44.7203 57.837C44.7203 62.5182 44.6765 66.2807 44.6765 67.462C44.6765 68.3807 45.3328 69.4745 47.0828 69.1245C54.0313 66.7794 60.0692 62.3141 64.3466 56.3572C68.624 50.4002 70.9253 43.2518 70.9265 35.9182C70.9265 16.5807 55.264 0.918213 35.9265 0.918213Z" fill="#D3DDCE"/>
</svg>
